<?xml version="1.0" encoding="utf-8"?><svg width="608" height="499" viewBox="0 0 608 499" xmlns="http://www.w3.org/2000/svg" xmlns:xlink="http://www.w3.org/1999/xlink"><svg id="bootstrap" viewBox="2349 -1 152 152" width="152" height="152" x="152" xmlns="http://www.w3.org/2000/svg"><style>.ast0{fill:#563d7c}.ast1{fill:#fff}</style><path class="ast0" d="M2353 128.4c0 10.3 8.3 18.6 18.6 18.6h106.9c10.3 0 18.6-8.3 18.6-18.6V21.6c0-10.3-8.3-18.6-18.6-18.6h-106.9c-10.3 0-18.6 8.3-18.6 18.6v106.8z"/><path class="ast1" d="M2412.2 66.4V45.1h18.7c1.8 0 3.5.1 5.2.4 1.7.3 3.1.8 4.4 1.6 1.3.8 2.3 1.8 3.1 3.2.8 1.4 1.1 3.1 1.1 5.2 0 3.8-1.1 6.6-3.4 8.3-2.3 1.7-5.2 2.5-8.8 2.5l-20.3.1zm-20-36.8v90.8h44c4.1 0 8-.5 11.9-1.5 3.9-1 7.3-2.6 10.3-4.7 3-2.1 5.4-4.9 7.2-8.2 1.8-3.3 2.7-7.3 2.7-11.9 0-5.7-1.4-10.5-4.1-14.6-2.8-4-6.9-6.8-12.5-8.5 4.1-1.9 7.1-4.5 9.2-7.5 2.1-3.1 3.1-6.9 3.1-11.4 0-4.2-.7-7.8-2.1-10.7-1.4-2.9-3.4-5.2-5.9-6.9-2.5-1.7-5.6-3-9.2-3.8-3.6-.8-7.5-1.1-11.8-1.1h-42.8zm20 75.3V80h21.8c4.3 0 7.8 1 10.4 3 2.6 2 3.9 5.3 3.9 10 0 2.4-.4 4.3-1.2 5.9s-1.9 2.7-3.2 3.6c-1.4.9-2.9 1.5-4.7 1.9-1.8.4-3.6.6-5.6.6h-21.4v-.1z"/></svg><svg id="css" viewBox="1622.5 -1 152 152" width="152" height="152" y="304" xmlns="http://www.w3.org/2000/svg"><style>.bst0{fill:#264de4}.bst1{fill:#2965f1}.bst2{fill:#ebebeb}.bst3{fill:#fff}</style><path class="bst0" d="M1698.4 146.9l-50.4-14L1636.8 7h123.4L1749 132.9l-50.6 14z"/><path class="bst1" d="M1739.3 124.9l9.6-107.6h-50.4v118.9l40.8-11.3z"/><path class="bst2" d="M1662.6 64l1.4 15.4h34.6V64h-36zm-2.8-31.3l1.4 15.4h37.3V32.7h-38.7zm38.7 71.4l-17.3-4.6-1.1-12.3h-15.5l2.2 24.2 31.6 8.8h.1v-16.1z"/><path class="bst3" d="M1734.3 64l2.8-31.3h-38.7v15.4h21.8l-1.4 15.8h-20.4v15.4h19l-1.8 20-17.2 4.6V120l31.7-8.8.2-2.6 3.6-40.7.4-3.9z"/></svg><svg id="git" viewBox="2349 -1 152 152" width="152" height="152" y="152" xmlns="http://www.w3.org/2000/svg"><style>.cst0{fill:#de4c36}</style><path class="cst0" d="M2495.8 68.4l-64.3-64.3c-3.7-3.7-9.7-3.7-13.4 0l-13.4 13.4 16.9 16.9c3.9-1.3 8.4-.4 11.6 2.7 3.2 3.2 4 7.7 2.7 11.7l16.3 16.3c3.9-1.4 8.5-.5 11.7 2.7 4.4 4.4 4.4 11.5 0 16-4.4 4.4-11.6 4.4-16 0-3.3-3.3-4.1-8.2-2.5-12.3l-15.2-15.2v40.1c1.1.5 2.1 1.3 3 2.1 4.4 4.4 4.4 11.5 0 16-4.4 4.4-11.6 4.4-16 0s-4.4-11.6 0-16c1.1-1.1 2.3-1.9 3.7-2.5V55.5c-1.4-.6-2.6-1.4-3.7-2.5-3.3-3.3-4.1-8.2-2.4-12.3L2398.2 24l-44.1 44.1c-3.7 3.7-3.7 9.7 0 13.4l64.3 64.3c3.7 3.7 9.7 3.7 13.4 0l64-64a9.3 9.3 0 0 0 0-13.4"/></svg><svg id="gulp" viewBox="575.5 204 152 152" width="152" height="152" x="152" y="152" xmlns="http://www.w3.org/2000/svg"><style>.dst0{fill:#d34a47}.dst1{fill:#fff}</style><path class="dst0" d="M669.6 348l1.4-23.2 3.8-6.6s-8.7 3.6-23.4 3.6c-14.6 0-23.2-3.5-23.2-3.5l4.3 7.2L634 348c0 2.4 8 4.4 17.8 4.4 9.9 0 17.8-1.9 17.8-4.4m-4.3-108.2l2.9-11.5 16.2-17-4.3-3.6-17.1 18-3.4 13.8c-2.6-.1-5.1-.1-7.7-.1-18 0-32.6 2.1-32.6 4.6 0 2.5 14.6 4.6 32.6 4.6s32.6-2.1 32.6-4.6c.1-1.9-7.9-3.5-19.2-4.2"/><path class="dst1" d="M663.6 246.2s-.6.1-2.5.1-3.2 0-3.7-.5c-.1-.1-.2-.4-.2-.6 0-.3.2-.5.5-.6l.3.4c-.1 0-.2.1-.2.1 0 .3 1.9.4 3.4.4s3.2-.1 3.2-.4c0-.1-.1-.1-.4-.2l.3-.4c.4.1.7.3.7.7 0 .9-.9 1-1.4 1"/><path class="dst0" d="M684.3 211.3c.4-.5-.2-1.7-1.4-2.7-1.2-1-2.4-1.5-2.9-1-.4.5.2 1.7 1.4 2.7 1.2 1 2.5 1.4 2.9 1m-15.4 80.1c-.4-3.7 8.1-9 5.9-9.2-4.7.3-7 5.5-9.3 10.9-.9 2-3.8 10.5-5.7 9.5-1.9-1 2.5-8.1 3.7-12.2-1.4 1.1-6.7 5.1-8 1.3-2.2 1.9-6.8 2.9-6.3-2-1.2 2.1-3.8 4.9-6.9 3.7-4.1-1.6 2.4-14.6 4-14 1.6.7-.3 3.6-.8 4.8-1.1 2.5-2.4 5.7-1.5 6.4 1.5 1.1 5.5-4.2 5.6-4.4.8-1 2.9-7.5 4.6-6.7 1.7.7-4.3 9.3-2 11 .5.3 2.3-.2 3.4-1.4.7-.8.5-2.5 2.9-8.4 2.4-5.8 4.6-13 6.3-12.5 1.7.6.3 4.3-.3 5.7-2.8 6.5-7.7 17.2-5.4 16.4 2.3-.8 3.5-.9 5.7-3.5s2.1-7 3.6-6.9c1.5.1 1.2 1.5.9 2.5 1.5-1.7 7-5.2 8.3-1.7 1.6 4.2-7.9 10.2-5.5 9.9 2.3-.3 6-2.7 7.6-4.8l4.4-39.4s-4.4 3.6-32.5 3.6c-28 0-32-3.6-32-3.6l3.7 35.9c2-5.6 6.7-17 14.1-16.6 3.4.2 7.9 6.7 4 6.9-1.6.1-1.8-3.2-3.7-3.7-1.4-.4-3.3.8-4.6 2-2.5 2.4-7.9 12.1-7.2 16.9.9 6.1 8.5-2.1 9.8-4.6.9-1.7 1.5-6.9 3.5-6.3 2 .5-.2 5.8-1.6 10.5-1.6 5.3-2.4 10.8-4.5 10.2-2-.6 1.3-7.4 1.1-8.6-1.9 1.7-5.4 6.2-9.8 4l2.3 22.3s6.2 4.9 24.7 4.9 24.9-4.8 24.9-4.8l2.9-25.9c-2.4 2.4-9.9 6.5-10.3 1.9"/></svg><svg id="html" viewBox="1622.5 -1 152 152" width="152" height="152" x="304" xmlns="http://www.w3.org/2000/svg"><style>.est0{fill:#e44d26}.est1{fill:#f16529}.est2{fill:#ebebeb}.est3{fill:#fff}</style><path class="est0" d="M1763.1 1.7l-11.8 131.9-52.9 14.7-52.8-14.7-11.7-131.9h129.2z"/><path class="est1" d="M1698.5 137.1l42.8-11.9 10.1-112.7h-52.8v124.6z"/><path class="est2" d="M1675.6 44.9h22.9V28.7h-40.6l.4 4.3 4 44.6h36.2V61.4h-21.4l-1.5-16.5zm3.7 40.8H1663l2.3 25.4 33.1 9.2h.1v-16.8h-.1l-18-4.9-1.1-12.9z"/><path class="est3" d="M1698.4 77.6h19.9l-1.9 21-18 4.9v16.8l33.2-9.2.2-2.7 3.8-42.6.4-4.3h-37.6v16.1zm0-32.8h39.1l.3-3.6.7-8.2.4-4.3h-40.5v16.1z"/></svg><svg id="illustrator" viewBox="1944 204 152 152" width="152" height="152" x="304" y="152" xmlns="http://www.w3.org/2000/svg"><style>.fst0{fill:url(#fSVGID_1_)}.fst1{fill:#ff7f18}</style><radialGradient id="fSVGID_1_" cx="1356.135" cy="231.249" r=".044" gradientTransform="matrix(2291.6716 0 0 -2218.7549 -3105818 513329.188)" gradientUnits="userSpaceOnUse"><stop offset="0" stop-color="#423325" stop-opacity=".98"/><stop offset="1" stop-color="#1c0a00"/></radialGradient><path class="fst0" d="M1953.5 214.6h133V344h-133V214.6z"/><path class="fst1" d="M1953.9 215.6h133V345h-133V215.6zm-6 135.4H2093V209.5h-145.1V351zm95-91.1c0-.5.2-.7.7-.7h9.5c.5 0 .7.2.7.7v47.7c0 .5-.1.7-.7.7h-9.4c-.6 0-.8-.3-.8-.8v-47.6zm-.6-13.7c0-3.9 2.7-6.2 6.2-6.2 3.7 0 6.2 2.5 6.2 6.2 0 4-2.6 6.2-6.3 6.2-3.6 0-6.1-2.2-6.1-6.2zm-27.2 33.6c-1.7-6.7-5.7-21.3-7.2-28.4h-.1c-1.3 7.1-4.5 19-7 28.4h14.3zm-16.9 9.8l-4.8 18.1c-.1.5-.3.6-.9.6h-8.9c-.6 0-.7-.2-.6-.9l17.2-60.1c.3-1.1.5-2.1.6-5 0-.4.2-.6.5-.6h12.7c.4 0 .6.1.7.6l19.2 65.2c.1.5 0 .8-.5.8h-10c-.5 0-.8-.1-.9-.5l-5-18.2h-19.3z"/></svg><svg id="javascript" viewBox="1944 204 152 152" width="152" height="152" xmlns="http://www.w3.org/2000/svg"><style>.gst0{fill:#f7df1e}</style><path class="gst0" d="M1950.1 210.1h139.7v139.7h-139.7V210.1z"/><path d="M1986.9 326.9l10.7-6.5c2.1 3.7 3.9 6.8 8.4 6.8 4.3 0 7-1.7 7-8.3v-44.6h13.1v44.8c0 13.6-8 19.8-19.6 19.8-10.4 0-16.5-5.4-19.6-12m46.4-1.4l10.7-6.2c2.8 4.6 6.5 8 12.9 8 5.4 0 8.9-2.7 8.9-6.5 0-4.5-3.6-6.1-9.6-8.7l-3.3-1.4c-9.5-4-15.8-9.1-15.8-19.8 0-9.8 7.5-17.3 19.2-17.3 8.3 0 14.3 2.9 18.7 10.5l-10.2 6.6c-2.3-4-4.7-5.6-8.4-5.6-3.8 0-6.3 2.4-6.3 5.6 0 3.9 2.4 5.5 8.1 8l3.3 1.4c11.2 4.8 17.4 9.7 17.4 20.6 0 11.8-9.3 18.3-21.8 18.3-12.1-.1-20-5.9-23.8-13.5"/></svg><svg id="jquery" viewBox="1944 204 152 152" width="152" height="152" x="152" y="304" xmlns="http://www.w3.org/2000/svg"><style>.hst0{fill:#1a1918}.hst1{fill:#21609b}</style><path class="hst0" d="M2084.9 311.5h7.6s-14.1 19.1-15.3 20.7c-.4.5-.9 1-1.2 1.7-.7 1.7-1.5 5.4-1.5 5.4h-6.9s1.1-3.9 1-5.9c0-1.8-1-3.6-1.5-5.4-.5-1.8-1.2-5.4-1.2-5.4h7.1l1 3.9 10.9-15"/><path class="hst0" d="M2070.5 315.5c1.4.8 2.3 5.5 2.3 5.5s-7.3.1-11.3.1h-3.4l-4.2 18.2h-6.4s4-19.8 4.9-23.4c.3-1.2 2.1-1 5.1-1h4.8c3.1.1 6.7-.3 8.2.6m-29.8 8.9s.2-1.2-.7-2.5c-.7-1.2-1.4-1.4-3.4-1.5-5.6-.2-5.5 3.9-5.5 3.9l9.6.1zm6-4.7c.8 2.9-.7 9.8-.7 9.8s-8.1-.1-12.5 0c-1.4 0-3-.2-3.4.5-.6.9.2 2.3.9 2.9.8.7 2.3.8 2.8.8 3.6.5 11.1.1 11.1.1l-1.3 5.8s-10.7.5-16-.7c-1.1-.3-2-.8-2.7-1.5-.2-.2-.3-.5-.5-.7-.1-.2-.5-.8-.7-1.3-1.2-3.2.1-9.5 1.5-12.8.2-.4.3-.9.6-1.3.3-.5.5-1.1.7-1.4.1-.2.3-.4.5-.6.2-.2.4-.5.5-.7.5-.6 1.1-1 1.7-1.5 2.2-1.7 6.2-3 11.1-2.5 1.8.2 4.6.8 5.9 2.7.2.6.3 1.6.5 2.4zm-29.3-4.7h6.2s-3.5 16.4-5.2 24.4h-7.1c-5 0-9.4.6-11.3-3-1.8-3.5-.1-9.2.7-13 .6-2.7 1.8-8.3 1.8-8.3l6.4-.1s-1.8 8.7-2.6 13.1c-.3 1.6-.8 3-.2 4.2.6 1.1 1.3 1.2 3.7 1.2h3.2l4.4-18.5m-29 11.8c.6-2.3 1.6-4.8 1.5-6.9-.1-2.2-2-4.2-3.2-4.7-3.6-1.3-7 .5-8.4 2-1.7 1.9-2.3 4.1-3 7.1-.5 2.3-.8 4.6 0 6.4 1.5 3.1 6.1 2.4 11.1 2.5.7-2 1.4-4.2 2-6.4zm8.6-9.1c.7 5.2-2 10.8-3.9 15.8 1.9.2 3.6 0 3.7.1.1.2-1.3 5.9-1.8 5.9-1.5 0-6.5.1-8.6.1-6.8 0-13.2.4-16.5-3-1.3-1.4-2.2-3.7-2.5-5.4-.4-2.8.1-5.8.7-8.4.6-2.3 1.3-4.4 2.5-6.4 2.9-5 7.9-8.7 16.2-7.9 1.6.2 4 .9 5.4 1.7.1.1.5.3.5.4 2.1 1.3 3.9 4.3 4.3 7.1zm-30.2-2.7c-.4 1.9-.8 4-1.3 5.9h-6.9c.5-2.1.9-4.1 1.5-5.9h6.7m-8.4 7.6h6.6c-.9 4.8-2.6 12.6-3.9 18-.8 3.4-1.4 5.8-3.7 7.6-.2.2-.3.1-.5.2-.4.4-2.4.9-3.4 1-1.8.2-3.7 0-5.9 0 .6-2.1 1.2-4.5 1.7-6.4 5.2.6 5.4-4.3 6.4-9.1.5-2.7 2.3-10.2 2.7-11.3"/><g><path class="hst1" d="M2061.9 277.7l-.4 1c-6.7 13.1-18.6 21.1-35.5 21.4-7.9.2-15.5-1.9-20.4-4.1-10.6-4.8-19.6-13.7-24.5-23.1-7-13.6-8.3-32.5 6.3-46.6.2 0-1.8 3.1-1.5 3.1l-.4 1.3c-10.5 32.9 21.9 61.1 53.4 57.9 7.5-.8 17.1-4.9 23-10.9"/><path class="hst1" d="M2042.9 264.1c7.9.1 16.2-3.6 21.1-8.8-4.3 10.9-16.7 17.9-33.3 15.6-13.9-1.9-27.2-15.9-28.6-29.9-1-10.2 2.6-16.3 8.4-23.7-2 3.9-2.8 6.9-3 8.8-2.2 22 17.7 37.9 35.4 38"/><path class="hst1" d="M2063.2 236.7c-1.2 2.8-8.3 8.2-11.4 8.8-12.4 2.6-20.3-3.2-24.5-9.9-.6-1-1.8-3.7-2-4.4-1.6-5.5-.9-13.8 3.9-18.1-1.4 4.1-1.7 8.8-.9 11.9.5 1.9 1.9 5.1 3.3 7.2 2.6 3.7 4.2 4.6 7.5 6.6 1.5.9 3.1 1.6 3.8 1.8 3.1.9 9.6 3.3 20.3-3.9"/></g></svg><svg id="less" viewBox="810.5 -0.5 152 152" width="152" height="152" x="304" y="304" xmlns="http://www.w3.org/2000/svg"><style>.ist0{fill:url(#ipath19_1_)}.ist1{fill:#f6f6f6}</style><g id="ilayer1" transform="translate(130.531 -317.844)"><linearGradient id="ipath19_1_" gradientUnits="userSpaceOnUse" x1="736.288" y1="-23.676" x2="736.288" y2="40.582" gradientTransform="translate(19.712 384.891)"><stop offset=".15" stop-color="#2a4f84"/><stop offset=".388" stop-color="#294e82"/><stop offset="1" stop-color="#172e4e"/></linearGradient><path id="ipath19" class="ist0" d="M820.5 413.1c0 6.8-5.6 12.4-12.4 12.4H703.9c-6.8 0-12.4-5.6-12.4-12.4v-39.5c0-6.8 5.6-12.4 12.4-12.4h104.2c6.8 0 12.4 5.6 12.4 12.4v39.5z"/><path id="ipath21" class="ist1" d="M799.2 392.5c5.4 1.9 8.2 5.2 8.2 9.8 0 3-1.1 5.5-3.4 7.2-2.2 1.8-5.5 2.9-9.6 2.9-4.2 0-8-1.2-11.6-3.2 0-1.1.3-2.2.8-3.5.5-1.3 1.1-2.3 1.8-3 3.3 1.7 6.1 2.6 8.5 2.6 1.1 0 2-.2 2.6-.6.6-.4.9-.9.9-1.5 0-1.2-.9-2.1-2.8-2.7l-3.4-1.3c-5.1-1.9-7.7-4.9-7.7-9.1 0-3.1 1.1-5.5 3.2-7.3 2.1-1.8 5-3.4 8.7-3.4 1.8 0 3.8.3 6 .8s3.9 1.8 5.3 2.4c.1 1.1-.1 2.4-.7 3.7-.5 1.4-1.2 2.3-2 2.9-3.4-1.5-6.3-2.3-8.6-2.3-.8 0-1.4.2-1.9.5-.4.4-.6.8-.6 1.4 0 1 .8 1.7 2.3 2.3l4 1.4z"/><path id="ipath23" class="ist1" d="M772 392.5c5.4 1.9 8.2 5.2 8.2 9.8 0 3-1.1 5.5-3.4 7.2-2.3 1.8-5.5 2.9-9.6 2.9-4.2 0-8-1.2-11.6-3.2 0-1.1.3-2.2.8-3.5.5-1.3 1.1-2.3 1.8-3 3.3 1.7 6.1 2.6 8.5 2.6 1.1 0 2-.2 2.6-.6.6-.4.9-.9.9-1.5 0-1.2-.9-2.1-2.8-2.7l-3.4-1.3c-5.1-1.9-7.7-4.9-7.7-9.1 0-3.1 1.1-5.5 3.2-7.3 2.1-1.8 5-3.4 8.7-3.4 1.8 0 3.8.3 6 .8s3.9 1.8 5.3 2.4c.1 1.1-.1 2.4-.7 3.7-.5 1.4-1.2 2.3-2 2.9-3.4-1.5-6.3-2.3-8.6-2.3-.8 0-1.4.2-1.9.5-.4.4-.6.8-.6 1.4 0 1 .8 1.7 2.3 2.3l4 1.4z"/><path id="ipath25" class="ist1" d="M752.2 392.9c0-1.9-.3-3.6-.9-5.2-.6-1.6-1.4-2.9-2.5-4.1-1.1-1.1-2.4-2-4-2.7-1.6-.6-3.3-1.6-5.3-1.6-2.3 0-4.4 1.1-6.1 1.9-1.7.8-3.2 1.9-4.3 3.3-1.1 1.4-2 3.1-2.5 5-.6 1.9-.8 4-.8 6.3s.2 4.5.7 6.5c.4 2 1.2 3.7 2.3 5.2 1.1 1.5 2.5 2.6 4.2 3.4 1.7.8 3.9 1.4 6.5 1.4 4.7 0 8.8-1.4 12-3.7-.3-2.3-1.2-4.2-2.5-5.6-1.7.6-3.2 1.1-4.4 1.4-1.3.3-2.4.4-3.4.4-2 0-3.4-.5-4.2-1.5-.9-1-1.3-2.2-1.4-4h16c.3-1.6.6-3.9.6-6.4zm-16.8.5c.1-2.1.5-4.3 1.1-5.2.6-.9 1.6-1.4 2.9-1.4 1.3 0 2.3.5 3 1.5.7 1 1 2.9 1 4.4v.7h-8z"/><path id="ipath27" class="ist1" d="M824.2 397.4c-1.7 1.5-2.7 3.7-2.7 6.5v10.6c0 3.5-1.1 6.2-3.5 8.1-2.4 1.8-5.3 2.8-8.6 2.8h-1.9v-5.3c1.7-.5 2.4-1.1 3.1-1.7 1.2-1.1 2.2-2.9 2.2-5.4v-8.6c0-2.9.3-5.2 1.3-6.8 1.1-1.6 3.1-3.1 6.2-4.3-3.4-1.6-5.7-3.6-6.9-6.1-.7-1.5-.7-3.5-.7-6v-7.9c0-2.6-.8-4.4-1.9-5.5-.7-.7-1.5-1.2-3.4-1.6v-5h4.8c2.1 0 3.8 1.1 5.3 2.3 1.6 1.3 2.8 3 3.5 5.2.4 1.3.4 2.5.4 3.6v9.1c0 3.2.9 5.6 2.6 7.2.9.9 2.2 1.7 4.4 2.5v4.1c-1.9.5-3.1 1.3-4.2 2.2z"/><path id="ipath29" class="ist1" d="M702.1 361.2h-1.7c-2.1 0-3.8 1.1-5.3 2.3-1.6 1.3-3 3-3.5 5.2-.3 1.3-.2 2.5-.2 3.6v9.1c0 3.2-1.2 5.6-2.8 7.2-.9.9-2.9 1.7-5.1 2.5v4.1c2 .5 3.9 1.3 4.9 2.2 1.7 1.5 3 3.7 3 6.6v10.6c0 3.5.8 6.2 3.3 8.1 2.4 1.8 5.3 2.8 8.6 2.8h2.2v-5.3c-1.7-.5-2.6-1.1-3.3-1.7-1.2-1.1-1.9-2.9-1.9-5.4v-8.6c0-2.9-.5-5.2-1.6-6.8-1.1-1.6-3.1-3.1-6.2-4.3 3.4-1.6 5.7-3.6 6.9-6.1.7-1.5.9-3.5.9-6v-7.9c0-2.6.6-4.4 1.6-5.5.6-.6 1.6-1 3-1.4h2.2v-5.2l-5-.1z"/><path id="ipath31" class="ist1" d="M722.5 404.3h-1.7c-1.8 0-2.5-.9-2.5-2.9v-35c0-2.1-.6-3.6-1.4-4.4-.8-.8-2.1-.8-4.1-.8H708.7V403.1c0 2.9.7 5.1 1.8 6.4 1.2 1.4 3.1 2 5.9 2 1.9 0 4.1-.2 6.6-.6.1-.4.2-1.3.2-2.6.1-1.3-.2-2.6-.7-4z"/></g></svg><svg id="npm" viewBox="1944 204.5 152 152" width="152" height="152" x="456" xmlns="http://www.w3.org/2000/svg"><style>.jst0{fill:#cb3837}.jst1{fill:#fff}</style><path class="jst0" d="M1948.7 252.7v47.6h39.6v8h31.6v-8h71.3v-47.6h-142.5z"/><path class="jst1" d="M1972.5 260.7h-15.7v31.6h15.7v-23.7h8v23.7h8v-31.6h-16zm23.9 0v39.6h16v-8h15.7v-31.6h-31.7zm23.7 23.7h-7.7v-15.7h7.7v15.7zm31.6-23.7H2036v31.6h15.7v-23.7h8v23.7h8v-23.7h8v23.7h8v-31.6h-32z"/></svg><svg id="photoshop" viewBox="1944 204 152 152" width="152" height="152" x="456" y="152" xmlns="http://www.w3.org/2000/svg"><style>.kst0{fill:url(#kSVGID_1_)}.kst1{fill:#31c5f0}</style><radialGradient id="kSVGID_1_" cx="1356.135" cy="231.248" r=".043" gradientTransform="matrix(2291.6716 0 0 -2218.7549 -3105818 513329.188)" gradientUnits="userSpaceOnUse"><stop offset="0" stop-color="#34364e" stop-opacity=".98"/><stop offset="1" stop-color="#0c0824"/></radialGradient><path class="kst0" d="M1955.8 218.3h128.3v124.8h-128.3V218.3z"/><path class="kst1" d="M1955.8 218.3h128.3v124.8h-128.3V218.3zM1950 349h140V212.5h-140V349zm94.4-80.5c-4.6 0-6.2 2.3-6.2 4.3 0 2.1 1 3.6 7.2 6.8 9.2 4.4 12 8.7 12 14.9 0 9.3-7.1 14.4-16.7 14.4-5.1 0-9.5-1.1-12-2.5-.4-.2-.5-.5-.5-.9v-8.6c0-.6.3-.8.7-.5 3.7 2.4 7.9 3.4 11.7 3.4 4.6 0 6.5-1.9 6.5-4.6 0-2.1-1.3-4-7.2-7-8.3-4-11.7-8-11.7-14.7 0-7.5 5.9-13.8 16.1-13.8 5 0 8.5.8 10.4 1.6.5.3.6.8.6 1.2v8c0 .5-.3.8-.9.6-2.4-1.6-6.2-2.6-10-2.6zm-50.2 6.9c1.3.1 2.4.1 4.7.1 6.8 0 13.2-2.4 13.2-11.7 0-7.4-4.6-11.1-12.4-11.1-2.3 0-4.6.1-5.6.2v22.5zm-10.4-30.9c0-.4.8-.7 1.3-.7 3.7-.2 9.3-.3 15.1-.3 16.2 0 22.5 8.9 22.5 20.2 0 14.8-10.7 21.2-23.9 21.2-2.2 0-3-.1-4.6-.1v22.4c0 .5-.2.7-.7.7h-8.9c-.5 0-.7-.2-.7-.7l-.1-62.7z"/></svg><svg id="wordpress" viewBox="1944 204 152 152" width="152" height="152" x="456" y="304" xmlns="http://www.w3.org/2000/svg"><style>.lst0{clip-path:url(#lSVGID_2_)}.lst1{fill:#00749a}.lst2{fill:#464342}</style><defs><path id="lSVGID_1_" d="M1948.5 208.5h143v143h-143z"/></defs><clipPath id="lSVGID_2_"><use xlink:href="#lSVGID_1_" overflow="visible"/></clipPath><g class="lst0"><path class="lst1" d="M2314 264.8h-24.8v2.6c7.8 0 9 1.7 9 11.5v17.7c0 9.8-1.2 11.6-9 11.6-6-.8-10-4-15.5-10.1l-6.4-6.9c8.6-1.5 13.2-6.9 13.2-13 0-7.6-6.5-13.4-18.7-13.4h-24.4v2.6c7.8 0 9 1.7 9 11.5v17.7c0 9.8-1.2 11.6-9 11.6v2.6h27.6v-2.6c-7.8 0-9-1.8-9-11.6v-5h2.4l15.4 19.3h40.3c19.8 0 28.4-10.5 28.4-23.1-.1-12.6-8.7-23-28.5-23zm-58.1 22.6V269h5.7c6.2 0 9 4.3 9 9.3 0 4.9-2.8 9.1-9 9.1h-5.7zm58.5 19.2h-1c-5 0-5.7-1.2-5.7-7.6v-30.1h6.7c14.4 0 17 10.5 17 18.7 0 8.5-2.6 19-17 19zm-154.2-14.1l9.6-28.3c2.8-8.2 1.5-10.5-7.3-10.5v-2.8h26.1v2.8c-8.7 0-10.8 2.1-14.3 12.2l-15.8 47.4h-1.8l-14.1-43.4-14.4 43.4h-1.8l-15.4-47.4c-3.3-10.1-5.5-12.2-13.6-12.2v-2.8h30.8v2.8c-8.2 0-10.4 1.9-7.5 10.5l9.3 28.3 14-41.6h2.6l13.6 41.6zm47.1 20.2c-15.2 0-27.7-11.2-27.7-24.9 0-13.6 12.5-24.8 27.7-24.8s27.7 11.2 27.7 24.8c0 13.7-12.5 24.9-27.7 24.9zm0-45.4c-12.7 0-17.2 11.5-17.2 20.5 0 9.1 4.4 20.5 17.2 20.5 12.9 0 17.3-11.4 17.3-20.5 0-9-4.4-20.5-17.3-20.5z"/><path class="lst2" d="M2376.6 308.2v2.8h-31.7v-2.8c9.3 0 10.9-2.4 10.9-16.2v-22.2c0-13.9-1.7-16.1-10.9-16.1v-2.8h28.7c14.3 0 22.2 7.3 22.2 17.2 0 9.6-7.9 17-22.2 17h-7.9v6.8c0 13.9 1.6 16.3 10.9 16.3zm-3.1-52.3h-7.9V280h7.9c7.8 0 11.4-5.4 11.4-11.9 0-6.6-3.6-12.2-11.4-12.2zm117.4 42l-.7 2.5c-1.2 4.6-2.8 6.2-12.6 6.2h-1.9c-7.2 0-8.5-1.7-8.5-11.5v-6.4c10.8 0 11.6 1 11.6 8.2h2.6v-20.6h-2.6c0 7.2-.8 8.2-11.6 8.2V269h7.6c9.8 0 11.4 1.7 12.6 6.2l.7 2.6h2.2l-1-13h-40.7v2.6c7.8 0 9 1.7 9 11.5v17.7c0 9-1.1 11.3-7.2 11.6-5.8-.9-9.8-4.1-15.3-10.1l-6.4-6.9c8.6-1.5 13.2-6.9 13.2-13 0-7.6-6.5-13.4-18.7-13.4h-24.4v2.6c7.8 0 9 1.7 9 11.5v17.7c0 9.8-1.2 11.6-9 11.6v2.6h27.6v-2.6c-7.8 0-9-1.8-9-11.6v-5h2.4l15.4 19.3h57l.8-13h-2.1zm-73.4-10.5V269h5.7c6.2 0 9 4.3 9 9.3 0 4.9-2.8 9.1-9 9.1h-5.7zm101.5 25.3c-5.5 0-10.4-2.9-12.5-4.7-.7.7-1.9 2.8-2.2 4.7h-2.6v-19.1h2.8c1.1 9.1 7.5 14.5 15.7 14.5 4.4 0 8-2.5 8-6.6 0-3.6-3.2-6.4-8.9-9l-7.9-3.7c-5.5-2.6-9.7-7.2-9.7-13.3 0-6.7 6.2-12.3 14.8-12.3 4.6 0 8.5 1.7 10.8 3.6.7-.6 1.4-2.1 1.8-3.7h2.6v16.4h-2.9c-1-6.5-4.6-11.9-11.9-11.9-3.9 0-7.5 2.2-7.5 5.7 0 3.6 2.9 5.5 9.6 8.6l7.6 3.7c6.7 3.2 9.3 8.3 9.3 12.5 0 8.5-7.6 14.6-16.9 14.6zm42.7 0c-5.5 0-10.4-2.9-12.5-4.7-.7.7-1.9 2.8-2.2 4.7h-2.6v-19.1h2.8c1.1 9.1 7.5 14.5 15.7 14.5 4.4 0 8-2.5 8-6.6 0-3.6-3.2-6.4-8.9-9l-7.9-3.7c-5.5-2.6-9.7-7.2-9.7-13.3 0-6.7 6.2-12.3 14.8-12.3 4.6 0 8.5 1.7 10.8 3.6.7-.6 1.4-2.1 1.8-3.7h2.6v16.4h-2.9c-1-6.5-4.6-11.9-11.9-11.9-3.9 0-7.5 2.2-7.5 5.7 0 3.6 2.9 5.5 9.6 8.6l7.6 3.7c6.7 3.2 9.3 8.3 9.3 12.5 0 8.5-7.6 14.6-16.9 14.6z"/><path class="lst1" d="M1958.7 280c0 24.3 14.1 45.3 34.6 55.2L1964 255c-3.5 7.9-5.3 16.4-5.3 25zm102.7-3.1c0-7.6-2.7-12.8-5.1-16.9-3.1-5.1-6-9.3-6-14.4 0-5.6 4.3-10.9 10.3-10.9h.8c-10.9-10-25.4-16.1-41.4-16.1-21.4 0-40.3 11-51.2 27.6 1.4 0 2.8.1 3.9.1 6.4 0 16.3-.8 16.3-.8 3.3-.2 3.7 4.7.4 5.1 0 0-3.3.4-7 .6l22.3 66.4 13.4-40.2-9.6-26.2c-3.3-.2-6.4-.6-6.4-.6-3.3-.2-2.9-5.2.4-5.1 0 0 10.1.8 16.2.8 6.4 0 16.3-.8 16.3-.8 3.3-.2 3.7 4.7.4 5.1 0 0-3.3.4-7 .6l22.2 65.9 6.1-20.4c2.7-8.5 4.7-14.5 4.7-19.8z"/><path class="lst1" d="M2021.1 285.4l-18.4 53.5c5.6 1.7 11.5 2.5 17.3 2.5 7.1 0 14-1.2 20.4-3.5-.2-.3-.3-.6-.4-.8l-18.9-51.7zm52.7-34.8c.3 2 .4 4.1.4 6.3 0 6.2-1.2 13.2-4.7 22l-18.7 54.2c18.2-10.6 30.5-30.4 30.5-53 0-10.4-2.5-20.5-7.5-29.5z"/><path class="lst1" d="M2020 208.5c-39.4 0-71.5 32.1-71.5 71.5s32.1 71.5 71.5 71.5 71.5-32.1 71.5-71.5-32.1-71.5-71.5-71.5zm0 139.7c-37.6 0-68.2-30.6-68.2-68.2s30.6-68.2 68.2-68.2 68.2 30.6 68.2 68.2-30.6 68.2-68.2 68.2z"/></g></svg><svg viewBox="-224.4 186.9 141.9 42.6" width="141.9" height="42.6" id="zg-logo" y="456" xmlns="http://www.w3.org/2000/svg"><style>.mst0{fill:#fff}.mst1{fill:#941821}.mst2{display:none}.mst3,.mst4{display:inline;fill:#fff}.mst4{fill:none}</style><g id="mLayer_3"><path class="mst0" d="M-179.1 216.3c-.5.8-1.4 1.5-2.7 2.1-1.2.6-2.8.9-4.8.9-2.5 0-4.5-.8-6.1-2.3-1.6-1.6-2.4-3.6-2.4-6v-4.3c0-2.5.7-4.5 2.2-6s3.4-2.3 5.8-2.3 4.3.6 5.6 1.8c1.3 1.2 2 2.7 2 4.6v.1h-3.2c-.1-1.1-.5-2-1.2-2.7-.7-.7-1.8-1-3.1-1-1.4 0-2.5.5-3.4 1.6-.9 1.1-1.3 2.4-1.3 4v4.3c0 1.6.5 3 1.4 4 .9 1.1 2.2 1.6 3.6 1.6 1.1 0 1.9-.1 2.6-.4s1.1-.5 1.4-.9v-4.1h-4v-2.5h7.4v7.5zM-159 210.7c0 2.5-.8 4.6-2.3 6.2-1.6 1.6-3.6 2.5-6.1 2.5-2.4 0-4.4-.8-6-2.5-1.5-1.6-2.3-3.7-2.3-6.2V207c0-2.5.8-4.5 2.3-6.2 1.5-1.6 3.5-2.5 5.9-2.5 2.5 0 4.5.8 6.1 2.5 1.6 1.6 2.3 3.7 2.3 6.2v3.7zm-3.4-3.7c0-1.7-.5-3.1-1.4-4.2-.9-1.1-2.1-1.6-3.7-1.6-1.5 0-2.7.5-3.5 1.6-.9 1.1-1.3 2.5-1.3 4.2v3.7c0 1.7.4 3.1 1.3 4.2s2.1 1.6 3.6 1.6c1.6 0 2.8-.5 3.7-1.6s1.3-2.5 1.3-4.2V207zm-3.9-13.8h3.8v.1l-3.8 3.6h-2.6l2.6-3.7zM-151.9 210.6v8.4h-3.4v-20.4h7.5c2.3 0 4 .5 5.3 1.5 1.2 1 1.9 2.5 1.9 4.4 0 1.1-.3 2-.8 2.7-.5.8-1.3 1.4-2.4 1.8 1.1.4 2 1 2.5 1.8s.8 1.8.8 3v1.7c0 .6.1 1.2.2 1.7s.4 1 .8 1.3v.3h-3.5c-.4-.3-.6-.8-.7-1.5s-.2-1.3-.2-1.9V214c0-1-.3-1.9-.9-2.5-.6-.6-1.4-.9-2.5-.9h-4.6zm0-2.7h3.9c1.4 0 2.4-.3 3-.8.6-.5.9-1.3.9-2.4 0-1-.3-1.8-.9-2.4-.6-.6-1.6-.9-2.8-.9h-4.1v6.5zM-125.3 213.8c0-.8-.3-1.5-.9-2.1-.6-.5-1.7-1-3.3-1.4-2.3-.6-4-1.4-5.3-2.4-1.2-1-1.8-2.3-1.8-3.9s.7-3 2-4.1c1.4-1.1 3.1-1.6 5.3-1.6 2.2 0 4 .6 5.4 1.8 1.4 1.2 2 2.7 2 4.3v.1h-3.3c0-1-.4-1.9-1.1-2.5-.7-.6-1.7-1-3-1-1.2 0-2.2.3-2.9.8-.7.5-1 1.2-1 2.1 0 .8.4 1.4 1.1 1.9.7.5 1.9 1 3.6 1.5 2.2.6 3.9 1.4 5 2.4s1.7 2.4 1.7 4c0 1.7-.7 3-2 4-1.4 1-3.1 1.5-5.3 1.5-2.1 0-4-.6-5.6-1.7s-2.4-2.7-2.3-4.6v-.1h3.3c0 1.2.4 2.2 1.3 2.8.9.6 2 .9 3.3.9 1.3 0 2.2-.3 2.9-.8.5-.3.9-1 .9-1.9zM-112.6 210.3h-2.3v8.8h-3.4v-20.4h3.4v8.6h1.9l6.4-8.6h4l-7.4 9.7 8 10.6h-4.2l-6.4-8.7zM-88.9 214.3h-8l-1.6 4.8h-3.4l7.5-20.4h3.2l7.4 20.4h-3.5l-1.6-4.8zm-7-2.8h6l-3-8.7h-.1l-2.9 8.7z"/><path class="mst1" d="M-223.4 187.9h26.6v40.6h-26.6z"/><g><path class="mst0" d="M-213.4 216.3h10.6v2.7h-14.7v-2.1l10.2-15.5h-10.1v-2.7h14.2v2l-10.2 15.6zm5-19.7h-3.6v-3.1h3.6v3.1z"/></g></g><g id="mLayer_1" class="mst2"><title>clear-view-escapes</title><path class="mst3" d="M-206.8 207.3v4.8h-13.6v5.5h12.5v4.4h-12.5v6.3h13.9v4.8H-226v-25.7h19.2zM-198.9 228.4c.2.4.5.7.9 1 .4.3.8.4 1.2.6.5.1 1 .2 1.5.2.4 0 .8 0 1.1-.1.4-.1.7-.2 1.1-.4.3-.2.6-.4.9-.8.2-.3.3-.7.3-1.1-.1-.9-.7-1.6-1.5-1.7-1.4-.5-2.8-.9-4.3-1.2-.7-.2-1.5-.4-2.2-.6-.7-.2-1.3-.5-1.9-.9-.5-.4-1-.8-1.3-1.4-.4-.6-.5-1.3-.5-2.1-.1-1 .2-2.1.7-3 .5-.8 1.1-1.4 1.9-1.8.8-.5 1.7-.8 2.6-.9 1-.2 2-.3 3-.3s2 .1 2.9.3c.9.2 1.8.5 2.5 1s1.3 1.1 1.8 1.9c.5.9.8 1.8.9 2.8h-4.9c0-.8-.4-1.6-1.1-2-.7-.4-1.5-.5-2.4-.5-.3 0-.6 0-.9.1-.3 0-.6.1-.9.2-.3.1-.5.3-.7.5-.2.3-.3.6-.3.9 0 .4.2.8.5 1.1.4.3.8.6 1.3.7.6.2 1.2.4 1.8.5l2.2.5c.7.2 1.5.4 2.2.6.7.2 1.3.6 1.9 1 .5.4 1 .9 1.3 1.5.4.7.5 1.4.5 2.2.1 2-.9 4-2.7 5.1-.8.5-1.8.9-2.7 1-1 .2-2.1.3-3.1.3-1.1 0-2.1-.1-3.2-.3-1-.2-1.9-.6-2.7-1.1-.8-.5-1.5-1.2-2-2-.6-.9-.8-2-.9-3.1h4.9c-.1.4 0 .9.3 1.3zM-175 217.8c-.7 0-1.4.2-2.1.6-.6.4-1 .9-1.4 1.4-.4.6-.6 1.3-.7 1.9-.1.7-.2 1.4-.2 2.1 0 .7.1 1.3.2 2s.4 1.3.7 1.9c.3.6.8 1 1.3 1.4.6.4 1.3.6 2 .5 1 .1 2.1-.3 2.8-1 .7-.8 1.1-1.7 1.2-2.8h4.9c-.2 2.2-1.2 4.2-2.9 5.7-1.7 1.3-3.9 2-6.1 1.9-1.3 0-2.6-.2-3.8-.7-1.1-.4-2.2-1.1-3-2-.8-.9-1.5-1.9-1.9-3-.5-1.2-.7-2.5-.7-3.8 0-1.4.2-2.7.6-4 .4-1.2 1.1-2.2 1.9-3.1.8-.9 1.9-1.6 3-2.1 1.3-.5 2.6-.8 4-.8 1.1 0 2.2.1 3.2.4 1 .3 1.9.7 2.7 1.3 1.7 1.2 2.8 3.2 2.8 5.3h-5c-.1-1.9-1.8-3.3-3.6-3.2.2.1.1.1.1.1zM-163.5 220.1c0-1.1.3-2.1.9-3 .5-.8 1.2-1.4 2-1.9.9-.5 1.8-.8 2.8-1 1-.2 2-.3 3.1-.3 1 0 1.9.1 2.8.2.9.1 1.8.4 2.6.8s1.5.9 2 1.6c.5.8.8 1.8.8 2.7v9.7c0 .8 0 1.6.1 2.4 0 .6.2 1.2.5 1.7h-5.2c-.1-.3-.2-.6-.2-.9-.1-.3-.1-.6-.1-.9-.8.8-1.8 1.4-2.9 1.8-1.1.3-2.2.5-3.4.5-.8 0-1.7-.1-2.5-.3-.7-.2-1.4-.5-2-1-.6-.5-1-1.1-1.4-1.7-.3-.8-.5-1.6-.5-2.5 0-.9.2-1.8.6-2.6.3-.7.8-1.2 1.4-1.6.6-.4 1.3-.7 2-.9.8-.2 1.5-.4 2.3-.5.8-.1 1.5-.2 2.3-.3.7-.1 1.3-.2 2-.3.5-.1 1-.3 1.4-.6.3-.3.5-.8.4-1.2 0-.5-.1-.9-.3-1.3-.2-.3-.4-.5-.7-.7-.3-.2-.6-.3-1-.4-.4-.1-.9-.1-1.3-.1-.8 0-1.7.2-2.4.6-.6.5-1 1.3-1 2.2l-5.1-.2zm11.8 3.8c-.2.2-.5.4-.8.4-.3.1-.7.2-1 .3-.4.1-.8.2-1.2.2s-.8.1-1.2.2c-.4.1-.8.2-1.1.3-.4.1-.7.3-1 .5-.3.2-.5.5-.7.8-.2.4-.3.8-.3 1.2 0 .4.1.8.3 1.2.2.3.4.6.7.7.3.2.6.3 1 .4.4.1.8.1 1.2.1.8 0 1.6-.1 2.3-.5.5-.3.9-.7 1.2-1.2.3-.4.4-.9.5-1.4.1-.4.1-.8.1-1.2v-2zM-137.7 214.4v2.4h.1c.6-1 1.4-1.7 2.4-2.2 1-.5 2.1-.7 3.2-.7 1.3 0 2.6.3 3.8.8 1 .5 1.9 1.3 2.6 2.2.7 1 1.2 2 1.6 3.2.3 1.2.5 2.5.5 3.8 0 1.2-.2 2.4-.5 3.6-.3 1.1-.8 2.1-1.5 3.1-.7.9-1.6 1.6-2.6 2.1-1.1.5-2.3.8-3.6.8-1.1 0-2.2-.2-3.2-.7-1-.5-1.8-1.2-2.4-2.1v8.8h-5.1v-25.1h4.7zm6.6 14.8c.6-.3 1-.8 1.4-1.4.4-.6.6-1.2.7-1.9.1-.7.2-1.5.2-2.2 0-.7-.1-1.5-.2-2.2-.1-.7-.4-1.3-.8-1.9-.4-.6-.8-1-1.4-1.4-.6-.3-1.4-.5-2.1-.4-.7 0-1.5.2-2.1.5-.6.3-1 .8-1.4 1.3-.4.6-.6 1.2-.7 1.9-.1.7-.2 1.5-.2 2.2 0 .7.1 1.5.2 2.2.1.6.4 1.2.8 1.8 1.3 1.9 3.7 2.5 5.6 1.5zM-115.1 228.6c1.7 1.4 4.1 1.5 6 .3.6-.4 1.1-1 1.4-1.6h4.5c-.5 1.9-1.7 3.6-3.3 4.8-1.6 1-3.5 1.5-5.4 1.4-1.4 0-2.7-.2-4-.7-1.1-.4-2.2-1.1-3-2-.8-.9-1.5-1.9-1.9-3.1-.5-1.3-.7-2.6-.7-4 0-1.3.2-2.6.7-3.9.9-2.3 2.7-4.2 4.9-5.2 1.2-.5 2.5-.8 3.9-.8s2.9.3 4.1.9c1.1.6 2.1 1.4 2.9 2.5.8 1.1 1.4 2.3 1.7 3.6.3 1.4.5 2.7.4 4.1h-13.5c0 1.4.4 2.7 1.3 3.7zm5.8-9.8c-.7-.7-1.8-1.1-2.8-1-.7 0-1.4.1-2 .4-.5.2-.9.6-1.3 1-.3.4-.5.8-.7 1.3-.1.4-.2.8-.2 1.2h8.3c-.2-1-.7-2.1-1.3-2.9zM-95.6 228.4c.2.4.5.7.9 1 .4.3.8.4 1.2.6.5.1 1 .2 1.5.2.4 0 .8 0 1.1-.1.4-.1.7-.2 1.1-.4.3-.2.6-.4.8-.7.2-.3.3-.7.3-1.1-.1-.9-.7-1.6-1.6-1.8-1.4-.5-2.8-.9-4.2-1.2-.7-.2-1.5-.4-2.2-.6-.7-.2-1.3-.5-1.9-.9-.5-.4-1-.8-1.3-1.4-.4-.6-.5-1.3-.5-2.1-.1-1 .2-2.1.7-3 .5-.8 1.1-1.4 1.9-1.8.8-.5 1.7-.8 2.6-.9 1-.2 2-.3 3-.3s2 .1 2.9.3c.9.2 1.8.5 2.5 1s1.4 1.1 1.9 1.8c.5.9.8 1.8.9 2.9h-4.9c0-.8-.4-1.6-1.1-2-.7-.4-1.5-.5-2.4-.5-.3 0-.6 0-.9.1-.3 0-.6.1-.9.2-.3.1-.5.3-.7.5-.2.3-.3.6-.3.9 0 .4.2.8.5 1.1.4.3.8.6 1.3.7.6.2 1.2.4 1.9.5l2.1.5c.7.2 1.5.4 2.2.6.7.2 1.3.6 1.9 1 .5.4 1 .9 1.3 1.5.4.7.5 1.4.5 2.2.1 2-.9 4-2.7 5-.8.5-1.8.9-2.7 1.1-1 .2-2.1.3-3.1.3-1.1 0-2.1-.1-3.2-.3-1-.2-1.9-.6-2.8-1.1-.8-.5-1.5-1.2-2-2-.6-.9-.8-2-.8-3.1h4.9c-.1.4 0 .9.3 1.3zM-202.6 186.1c-.1-.5-.3-1-.6-1.4-.2-.4-.5-.8-.9-1.1-.4-.3-.8-.6-1.3-.7-.6-.2-1.1-.3-1.7-.3-.9 0-1.7.2-2.5.6-.7.4-1.3.9-1.7 1.5-.5.7-.8 1.4-1 2.2-.4 1.6-.4 3.4 0 5 .2.8.5 1.5 1 2.2.4.6 1 1.2 1.7 1.5.8.4 1.6.6 2.5.6.6 0 1.3-.1 1.9-.3.5-.2 1-.6 1.4-1 .4-.4.7-.9.9-1.5.2-.6.4-1.2.4-1.8h3.1c-.1 1-.3 2-.7 2.9-.4.9-.9 1.6-1.6 2.3-.7.6-1.5 1.2-2.4 1.5-1 .4-2 .5-3 .5-1.2 0-2.5-.2-3.6-.7-1-.5-1.9-1.1-2.7-2-.8-.9-1.3-1.9-1.7-3-.4-1.2-.6-2.4-.6-3.6 0-1.2.2-2.4.6-3.6.4-1.1.9-2.1 1.7-3 .7-.8 1.7-1.5 2.7-2 1.1-.5 2.4-.8 3.7-.8 1 0 1.9.1 2.8.4.8.3 1.6.7 2.3 1.2.7.5 1.2 1.2 1.7 1.9.4.8.7 1.7.8 2.6l-3.2-.1zM-197 180.4h2.9v17.9h-2.9v-17.9zM-188.8 192.6c0 .5.1 1 .2 1.4.1.4.3.9.6 1.2.3.4.7.6 1.1.8.5.2 1 .3 1.6.3.7 0 1.4-.2 2-.6.5-.4.9-1 1.1-1.6h2.7c-.3 1.3-1 2.5-2.1 3.3-.5.4-1.1.7-1.7.9-.6.2-1.3.3-2 .3-.9 0-1.8-.2-2.7-.5-.8-.3-1.4-.8-2-1.4-.6-.6-1-1.3-1.3-2.1-.3-.9-.4-1.8-.4-2.8 0-.9.1-1.8.4-2.6.3-.8.7-1.5 1.3-2.2 1.1-1.3 2.8-2 4.6-2 1 0 1.9.2 2.7.6.8.4 1.5 1 2 1.7s.9 1.5 1.2 2.4c.2.9.3 1.9.2 2.8h-9.5v.1zm6.7-1.9c0-.4-.1-.9-.3-1.3-.1-.4-.4-.8-.7-1.1-.3-.3-.6-.6-1-.8-.4-.2-.9-.3-1.3-.3-.5 0-.9.1-1.4.3-.4.2-.8.4-1.1.7-.3.3-.5.7-.7 1.1-.2.4-.3.9-.3 1.4h6.8zM-166.3 195.4c0 .3 0 .5.1.8.1.2.3.3.5.2h.7v2h-.4l-.5.1-.5.1h-.4c-.5 0-1-.1-1.5-.4-.4-.3-.7-.7-.8-1.2-.6.6-1.3 1-2.1 1.2-.8.2-1.6.4-2.4.4-.6 0-1.1-.1-1.7-.2-.5-.1-1-.4-1.4-.7-.4-.3-.8-.7-1-1.2-.2-.5-.4-1.1-.4-1.7 0-.7.1-1.4.4-2 .3-.5.7-.9 1.2-1.2.5-.3 1-.5 1.6-.6l1.8-.3c.5-.1 1-.2 1.5-.2.4 0 .8-.1 1.2-.2.3-.1.6-.2.8-.4.2-.3.3-.6.3-.9 0-.3-.1-.6-.3-.9-.2-.2-.4-.4-.7-.5l-.9-.3c-.3 0-.6-.1-.9-.1-.7 0-1.4.1-2 .5-.5.4-.8.9-.9 1.6h-2.8c0-.7.2-1.4.6-2.1.3-.5.8-1 1.3-1.3.6-.3 1.2-.6 1.8-.7.7-.1 1.4-.2 2.1-.2.6 0 1.3.1 1.9.2.6.1 1.1.3 1.6.6s.9.7 1.2 1.2c.3.5.5 1.2.5 1.8v6.6zm-2.8-3.6c-.5.3-1 .5-1.6.5-.7.1-1.3.1-1.9.3-.3 0-.6.1-.9.2-.3.1-.5.2-.8.4-.2.2-.4.4-.5.6-.1.3-.2.6-.2.9 0 .3.1.6.3.8.2.2.4.4.7.5l.9.3c.3 0 .6.1.8.1.3 0 .7 0 1-.1.4-.1.7-.2 1.1-.4.3-.2.6-.5.8-.8.2-.3.3-.7.3-1.1v-2.2zM-163.2 185.3h2.7v2.5h.1c.1-.4.3-.7.5-1 .3-.3.5-.6.9-.9.3-.3.7-.5 1.1-.7.4-.2.8-.2 1.3-.3h1.1v2.8l-.7-.1h-.6c-.5 0-.9.1-1.4.3-.4.2-.8.4-1.1.8-.3.4-.6.9-.8 1.4-.2.6-.3 1.3-.3 1.9v6.2h-2.9v-12.9zM-149.1 180.4h3.3l4.5 14.1h.1l4.5-14.1h3.2l-6.1 17.9h-3.5l-6-17.9zM-131.9 180.4h2.8v2.7h-2.8v-2.7zm0 5h2.8v12.9h-2.8v-12.9zM-123.7 192.6c0 .5.1 1 .2 1.4.1.4.3.9.6 1.2.3.4.7.6 1.1.8.5.2 1 .3 1.6.3.7 0 1.4-.2 2-.5.5-.4.9-1 1.1-1.6h2.7c-.3 1.3-1 2.5-2.1 3.3-.5.4-1.1.7-1.7.9-.6.2-1.3.3-2 .3-.9 0-1.8-.2-2.7-.5-.8-.3-1.4-.8-2-1.4-.6-.6-1-1.4-1.2-2.1-.3-.9-.4-1.8-.4-2.8 0-.9.1-1.8.4-2.6.3-.8.7-1.5 1.3-2.2 1.1-1.3 2.8-2 4.6-2 1 0 1.9.2 2.7.6.8.4 1.5 1 2 1.7s.9 1.5 1.2 2.4c.2.9.3 1.9.2 2.8h-9.6zm6.7-1.9c0-.4-.1-.9-.3-1.3-.1-.4-.4-.8-.7-1.1-.3-.3-.6-.6-1-.8-.4-.2-.9-.3-1.3-.3-.5 0-.9.1-1.4.3-.4.2-.7.4-1 .7-.3.3-.5.7-.7 1.1-.2.4-.3.9-.3 1.3l6.7.1zM-113.2 185.3h3l2.5 9.7 2.4-9.7h3l2.3 9.7 2.7-9.7h2.9l-4 12.9h-2.9l-2.4-9.6-2.4 9.6h-3l-4.1-12.9z"/><path class="mst4" d="M-263 157.5h251v111h-251z"/></g></svg></svg>