<?xml version="1.0" encoding="utf-8"?>
<!-- Generator: Adobe Illustrator 19.0.0, SVG Export Plug-In . SVG Version: 6.00 Build 0)  -->
<svg version="1.1" id="Layer_1" xmlns="http://www.w3.org/2000/svg" xmlns:xlink="http://www.w3.org/1999/xlink" x="0px" y="0px"
	 viewBox="1945 205 150 150" style="enable-background:new 1945 205 150 150;" xml:space="preserve">
<style type="text/css">
	.st0{fill:url(#SVGID_1_);}
	.st1{fill:#FF7F18;}
</style>
<radialGradient id="SVGID_1_" cx="1356.1348" cy="231.2494" r="4.411764e-002" gradientTransform="matrix(2291.6716 0 0 -2218.7549 -3105818 513329.1875)" gradientUnits="userSpaceOnUse">
	<stop  offset="0" style="stop-color:#423325;stop-opacity:0.98"/>
	<stop  offset="1" style="stop-color:#1C0A00"/>
</radialGradient>
<path class="st0" d="M1953.5,214.6h133V344h-133V214.6z"/>
<path class="st1" d="M1953.9,215.6h133V345h-133V215.6z M1947.9,351H2093V209.5h-145.1V351z M2042.9,259.9c0-0.5,0.2-0.7,0.7-0.7
	h9.5c0.5,0,0.7,0.2,0.7,0.7v47.7c0,0.5-0.1,0.7-0.7,0.7h-9.4c-0.6,0-0.8-0.3-0.8-0.8L2042.9,259.9L2042.9,259.9L2042.9,259.9z
	 M2042.3,246.2c0-3.9,2.7-6.2,6.2-6.2c3.7,0,6.2,2.5,6.2,6.2c0,4-2.6,6.2-6.3,6.2C2044.8,252.4,2042.3,250.2,2042.3,246.2z
	 M2015.1,279.8c-1.7-6.7-5.7-21.3-7.2-28.4h-0.1c-1.3,7.1-4.5,19-7,28.4H2015.1z M1998.2,289.6l-4.8,18.1c-0.1,0.5-0.3,0.6-0.9,0.6
	h-8.9c-0.6,0-0.7-0.2-0.6-0.9l17.2-60.1c0.3-1.1,0.5-2.1,0.6-5c0-0.4,0.2-0.6,0.5-0.6h12.7c0.4,0,0.6,0.1,0.7,0.6l19.2,65.2
	c0.1,0.5,0,0.8-0.5,0.8h-10c-0.5,0-0.8-0.1-0.9-0.5l-5-18.2H1998.2L1998.2,289.6z"/>
</svg>
