<?xml version="1.0" encoding="utf-8"?>
<!-- Generator: Adobe Illustrator 19.0.0, SVG Export Plug-In . SVG Version: 6.00 Build 0)  -->
<svg version="1.1" id="Layer_1" xmlns="http://www.w3.org/2000/svg" xmlns:xlink="http://www.w3.org/1999/xlink" x="0px" y="0px"
	 viewBox="1945 205 150 150" style="enable-background:new 1945 205 150 150;" xml:space="preserve">
<style type="text/css">
	.st0{fill:#F7DF1E;}
</style>
<path class="st0" d="M1950.1,210.1h139.7v139.7h-139.7V210.1z"/>
<path d="M1986.9,326.9l10.7-6.5c2.1,3.7,3.9,6.8,8.4,6.8c4.3,0,7-1.7,7-8.3v-44.6h13.1v44.8c0,13.6-8,19.8-19.6,19.8
	C1996.1,338.9,1990,333.5,1986.9,326.9 M2033.3,325.5l10.7-6.2c2.8,4.6,6.5,8,12.9,8c5.4,0,8.9-2.7,8.9-6.5c0-4.5-3.6-6.1-9.6-8.7
	l-3.3-1.4c-9.5-4-15.8-9.1-15.8-19.8c0-9.8,7.5-17.3,19.2-17.3c8.3,0,14.3,2.9,18.7,10.5l-10.2,6.6c-2.3-4-4.7-5.6-8.4-5.6
	c-3.8,0-6.3,2.4-6.3,5.6c0,3.9,2.4,5.5,8.1,8l3.3,1.4c11.2,4.8,17.4,9.7,17.4,20.6c0,11.8-9.3,18.3-21.8,18.3
	C2045,338.9,2037.1,333.1,2033.3,325.5"/>
</svg>
