<?xml version="1.0" encoding="utf-8"?>
<!-- Generator: Adobe Illustrator 19.0.0, SVG Export Plug-In . SVG Version: 6.00 Build 0)  -->
<svg version="1.1"
	 id="svg3059" xmlns:cc="http://creativecommons.org/ns#" xmlns:dc="http://purl.org/dc/elements/1.1/" xmlns:rdf="http://www.w3.org/1999/02/22-rdf-syntax-ns#" xmlns:svg="http://www.w3.org/2000/svg"
	 xmlns="http://www.w3.org/2000/svg" xmlns:xlink="http://www.w3.org/1999/xlink" x="0px" y="0px" viewBox="811.5 0.5 150 150"
	 style="enable-background:new 811.5 0.5 150 150;" xml:space="preserve">
<style type="text/css">
	.st0{fill:url(#path19_1_);}
	.st1{fill:#F6F6F6;}
</style>
<g id="layer1" transform="translate(130.53125,-317.84375)">
	
		<linearGradient id="path19_1_" gradientUnits="userSpaceOnUse" x1="736.2883" y1="-23.6764" x2="736.2883" y2="40.5818" gradientTransform="matrix(1 0 0 1 19.7117 384.8911)">
		<stop  offset="0.1497" style="stop-color:#2A4F84"/>
		<stop  offset="0.3884" style="stop-color:#294E82"/>
		<stop  offset="1" style="stop-color:#172E4E"/>
	</linearGradient>
	<path id="path19" class="st0" d="M820.5,413.1c0,6.8-5.6,12.4-12.4,12.4H703.9c-6.8,0-12.4-5.6-12.4-12.4v-39.5
		c0-6.8,5.6-12.4,12.4-12.4h104.2c6.8,0,12.4,5.6,12.4,12.4V413.1z"/>
	<path id="path21" class="st1" d="M799.2,392.5c5.4,1.9,8.2,5.2,8.2,9.8c0,3-1.1,5.5-3.4,7.2c-2.2,1.8-5.5,2.9-9.6,2.9
		c-4.2,0-8-1.2-11.6-3.2c0-1.1,0.3-2.2,0.8-3.5c0.5-1.3,1.1-2.3,1.8-3c3.3,1.7,6.1,2.6,8.5,2.6c1.1,0,2-0.2,2.6-0.6
		c0.6-0.4,0.9-0.9,0.9-1.5c0-1.2-0.9-2.1-2.8-2.7l-3.4-1.3c-5.1-1.9-7.7-4.9-7.7-9.1c0-3.1,1.1-5.5,3.2-7.3c2.1-1.8,5-3.4,8.7-3.4
		c1.8,0,3.8,0.3,6,0.8c2.2,0.5,3.9,1.8,5.3,2.4c0.1,1.1-0.1,2.4-0.7,3.7c-0.5,1.4-1.2,2.3-2,2.9c-3.4-1.5-6.3-2.3-8.6-2.3
		c-0.8,0-1.4,0.2-1.9,0.5c-0.4,0.4-0.6,0.8-0.6,1.4c0,1,0.8,1.7,2.3,2.3L799.2,392.5L799.2,392.5z"/>
	<path id="path23" class="st1" d="M772,392.5c5.4,1.9,8.2,5.2,8.2,9.8c0,3-1.1,5.5-3.4,7.2c-2.3,1.8-5.5,2.9-9.6,2.9
		c-4.2,0-8-1.2-11.6-3.2c0-1.1,0.3-2.2,0.8-3.5c0.5-1.3,1.1-2.3,1.8-3c3.3,1.7,6.1,2.6,8.5,2.6c1.1,0,2-0.2,2.6-0.6
		c0.6-0.4,0.9-0.9,0.9-1.5c0-1.2-0.9-2.1-2.8-2.7l-3.4-1.3c-5.1-1.9-7.7-4.9-7.7-9.1c0-3.1,1.1-5.5,3.2-7.3c2.1-1.8,5-3.4,8.7-3.4
		c1.8,0,3.8,0.3,6,0.8c2.2,0.5,3.9,1.8,5.3,2.4c0.1,1.1-0.1,2.4-0.7,3.7c-0.5,1.4-1.2,2.3-2,2.9c-3.4-1.5-6.3-2.3-8.6-2.3
		c-0.8,0-1.4,0.2-1.9,0.5c-0.4,0.4-0.6,0.8-0.6,1.4c0,1,0.8,1.7,2.3,2.3L772,392.5L772,392.5z"/>
	<path id="path25" class="st1" d="M752.2,392.9c0-1.9-0.3-3.6-0.9-5.2c-0.6-1.6-1.4-2.9-2.5-4.1c-1.1-1.1-2.4-2-4-2.7
		c-1.6-0.6-3.3-1.6-5.3-1.6c-2.3,0-4.4,1.1-6.1,1.9c-1.7,0.8-3.2,1.9-4.3,3.3c-1.1,1.4-2,3.1-2.5,5c-0.6,1.9-0.8,4-0.8,6.3
		c0,2.3,0.2,4.5,0.7,6.5c0.4,2,1.2,3.7,2.3,5.2c1.1,1.5,2.5,2.6,4.2,3.4c1.7,0.8,3.9,1.4,6.5,1.4c4.7,0,8.8-1.4,12-3.7
		c-0.3-2.3-1.2-4.2-2.5-5.6c-1.7,0.6-3.2,1.1-4.4,1.4c-1.3,0.3-2.4,0.4-3.4,0.4c-2,0-3.4-0.5-4.2-1.5c-0.9-1-1.3-2.2-1.4-4h16
		C751.9,397.7,752.2,395.4,752.2,392.9z M735.4,393.4c0.1-2.1,0.5-4.3,1.1-5.2c0.6-0.9,1.6-1.4,2.9-1.4c1.3,0,2.3,0.5,3,1.5
		c0.7,1,1,2.9,1,4.4l0,0.7H735.4L735.4,393.4L735.4,393.4z"/>
	<path id="path27" class="st1" d="M824.2,397.4c-1.7,1.5-2.7,3.7-2.7,6.5v10.6c0,3.5-1.1,6.2-3.5,8.1c-2.4,1.8-5.3,2.8-8.6,2.8
		l-1.9,0v-5.3c1.7-0.5,2.4-1.1,3.1-1.7c1.2-1.1,2.2-2.9,2.2-5.4v-8.6c0-2.9,0.3-5.2,1.3-6.8c1.1-1.6,3.1-3.1,6.2-4.3
		c-3.4-1.6-5.7-3.6-6.9-6.1c-0.7-1.5-0.7-3.5-0.7-6v-7.9c0-2.6-0.8-4.4-1.9-5.5c-0.7-0.7-1.5-1.2-3.4-1.6v-5c2.3,0,3.5,0,4.8,0
		c2.1,0,3.8,1.1,5.3,2.3c1.6,1.3,2.8,3,3.5,5.2c0.4,1.3,0.4,2.5,0.4,3.6v9.1c0,3.2,0.9,5.6,2.6,7.2c0.9,0.9,2.2,1.7,4.4,2.5v4.1
		C826.5,395.7,825.3,396.5,824.2,397.4L824.2,397.4z"/>
	<path id="path29" class="st1" d="M702.1,361.2L702.1,361.2c-0.7,0-1.3,0-1.7,0c-2.1,0-3.8,1.1-5.3,2.3c-1.6,1.3-3,3-3.5,5.2
		c-0.3,1.3-0.2,2.5-0.2,3.6v9.1c0,3.2-1.2,5.6-2.8,7.2c-0.9,0.9-2.9,1.7-5.1,2.5v4.1c2,0.5,3.9,1.3,4.9,2.2c1.7,1.5,3,3.7,3,6.6
		v10.6c0,3.5,0.8,6.2,3.3,8.1c2.4,1.8,5.3,2.8,8.6,2.8l2.2,0v-5.3c-1.7-0.5-2.6-1.1-3.3-1.7c-1.2-1.1-1.9-2.9-1.9-5.4v-8.6
		c0-2.9-0.5-5.2-1.6-6.8c-1.1-1.6-3.1-3.1-6.2-4.3c3.4-1.6,5.7-3.6,6.9-6.1c0.7-1.5,0.9-3.5,0.9-6v-7.9c0-2.6,0.6-4.4,1.6-5.5
		c0.6-0.6,1.6-1,3-1.4l2.2,0c0-1.9,0-3.1,0-5.2L702.1,361.2L702.1,361.2L702.1,361.2L702.1,361.2z"/>
	<path id="path31" class="st1" d="M722.5,404.3h-1.7c-1.8,0-2.5-0.9-2.5-2.9v-35c0-2.1-0.6-3.6-1.4-4.4c-0.8-0.8-2.1-0.8-4.1-0.8
		h-3.7l-0.4,0v0l0,5.2v36.7c0,2.9,0.7,5.1,1.8,6.4c1.2,1.4,3.1,2,5.9,2c1.9,0,4.1-0.2,6.6-0.6c0.1-0.4,0.2-1.3,0.2-2.6
		C723.3,407,723,405.7,722.5,404.3L722.5,404.3z"/>
</g>
</svg>
