<?xml version="1.0" encoding="utf-8"?>
<!-- Generator: Adobe Illustrator 19.0.0, SVG Export Plug-In . SVG Version: 6.00 Build 0)  -->
<svg version="1.1" id="Layer_1" xmlns="http://www.w3.org/2000/svg" xmlns:xlink="http://www.w3.org/1999/xlink" x="0px" y="0px"
	 viewBox="1945 205 150 150" style="enable-background:new 1945 205 150 150;" xml:space="preserve">
<style type="text/css">
	.st0{fill:#1A1918;}
	.st1{fill:#21609B;}
</style>
<g>
	<path class="st0" d="M2084.9,311.5l7.6,0c0,0-14.1,19.1-15.3,20.7c-0.4,0.5-0.9,1-1.2,1.7c-0.7,1.7-1.5,5.4-1.5,5.4l-6.9,0
		c0,0,1.1-3.9,1-5.9c0-1.8-1-3.6-1.5-5.4c-0.5-1.8-1.2-5.4-1.2-5.4h7.1l1,3.9L2084.9,311.5"/>
	<path class="st0" d="M2070.5,315.5c1.4,0.8,2.3,5.5,2.3,5.5s-7.3,0.1-11.3,0.1h-3.4l-4.2,18.2h-6.4c0,0,4-19.8,4.9-23.4
		c0.3-1.2,2.1-1,5.1-1h4.8C2065.4,315,2069,314.6,2070.5,315.5 M2040.7,324.4c0,0,0.2-1.2-0.7-2.5c-0.7-1.2-1.4-1.4-3.4-1.5
		c-5.6-0.2-5.5,3.9-5.5,3.9L2040.7,324.4z M2046.7,319.7c0.8,2.9-0.7,9.8-0.7,9.8s-8.1-0.1-12.5,0c-1.4,0-3-0.2-3.4,0.5
		c-0.6,0.9,0.2,2.3,0.9,2.9c0.8,0.7,2.3,0.8,2.8,0.8c3.6,0.5,11.1,0.1,11.1,0.1l-1.3,5.8c0,0-10.7,0.5-16-0.7
		c-1.1-0.3-2-0.8-2.7-1.5c-0.2-0.2-0.3-0.5-0.5-0.7c-0.1-0.2-0.5-0.8-0.7-1.3c-1.2-3.2,0.1-9.5,1.5-12.8c0.2-0.4,0.3-0.9,0.6-1.3
		c0.3-0.5,0.5-1.1,0.7-1.4c0.1-0.2,0.3-0.4,0.5-0.6c0.2-0.2,0.4-0.5,0.5-0.7c0.5-0.6,1.1-1,1.7-1.5c2.2-1.7,6.2-3,11.1-2.5
		c1.8,0.2,4.6,0.8,5.9,2.7C2046.4,317.9,2046.5,318.9,2046.7,319.7L2046.7,319.7z M2017.4,315l6.2,0c0,0-3.5,16.4-5.2,24.4h-7.1
		c-5,0-9.4,0.6-11.3-3c-1.8-3.5-0.1-9.2,0.7-13c0.6-2.7,1.8-8.3,1.8-8.3l6.4-0.1c0,0-1.8,8.7-2.6,13.1c-0.3,1.6-0.8,3-0.2,4.2
		c0.6,1.1,1.3,1.2,3.7,1.2c0.7,0,3.2,0,3.2,0L2017.4,315 M1988.4,326.8c0.6-2.3,1.6-4.8,1.5-6.9c-0.1-2.2-2-4.2-3.2-4.7
		c-3.6-1.3-7,0.5-8.4,2c-1.7,1.9-2.3,4.1-3,7.1c-0.5,2.3-0.8,4.6,0,6.4c1.5,3.1,6.1,2.4,11.1,2.5
		C1987.1,331.2,1987.8,329,1988.4,326.8L1988.4,326.8z M1997,317.7c0.7,5.2-2,10.8-3.9,15.8c1.9,0.2,3.6,0,3.7,0.1
		c0.1,0.2-1.3,5.9-1.8,5.9c-1.5,0-6.5,0.1-8.6,0.1c-6.8,0-13.2,0.4-16.5-3c-1.3-1.4-2.2-3.7-2.5-5.4c-0.4-2.8,0.1-5.8,0.7-8.4
		c0.6-2.3,1.3-4.4,2.5-6.4c2.9-5,7.9-8.7,16.2-7.9c1.6,0.2,4,0.9,5.4,1.7c0.1,0.1,0.5,0.3,0.5,0.4
		C1994.8,311.9,1996.6,314.9,1997,317.7L1997,317.7z M1966.8,315c-0.4,1.9-0.8,4-1.3,5.9h-6.9c0.5-2.1,0.9-4.1,1.5-5.9
		C1962.3,315,1964.3,315,1966.8,315 M1958.4,322.6h6.6c-0.9,4.8-2.6,12.6-3.9,18c-0.8,3.4-1.4,5.8-3.7,7.6c-0.2,0.2-0.3,0.1-0.5,0.2
		c-0.4,0.4-2.4,0.9-3.4,1c-1.8,0.2-3.7,0-5.9,0c0.6-2.1,1.2-4.5,1.7-6.4c5.2,0.6,5.4-4.3,6.4-9.1
		C1956.2,331.2,1958,323.7,1958.4,322.6"/>
</g>
<g>
	<path class="st1" d="M2061.9,277.7l-0.4,1c-6.7,13.1-18.6,21.1-35.5,21.4c-7.9,0.2-15.5-1.9-20.4-4.1
		c-10.6-4.8-19.6-13.7-24.5-23.1c-7-13.6-8.3-32.5,6.3-46.6c0.2,0-1.8,3.1-1.5,3.1l-0.4,1.3c-10.5,32.9,21.9,61.1,53.4,57.9
		C2046.4,287.8,2056,283.7,2061.9,277.7"/>
	<path class="st1" d="M2042.9,264.1c7.9,0.1,16.2-3.6,21.1-8.8c-4.3,10.9-16.7,17.9-33.3,15.6c-13.9-1.9-27.2-15.9-28.6-29.9
		c-1-10.2,2.6-16.3,8.4-23.7c-2,3.9-2.8,6.9-3,8.8C2005.3,248.1,2025.2,264,2042.9,264.1"/>
	<path class="st1" d="M2063.2,236.7c-1.2,2.8-8.3,8.2-11.4,8.8c-12.4,2.6-20.3-3.2-24.5-9.9c-0.6-1-1.8-3.7-2-4.4
		c-1.6-5.5-0.9-13.8,3.9-18.1c-1.4,4.1-1.7,8.8-0.9,11.9c0.5,1.9,1.9,5.1,3.3,7.2c2.6,3.7,4.2,4.6,7.5,6.6c1.5,0.9,3.1,1.6,3.8,1.8
		C2046,241.5,2052.5,243.9,2063.2,236.7"/>
</g>
</svg>
