<?xml version="1.0" encoding="utf-8"?>
<!-- Generator: Adobe Illustrator 19.0.0, SVG Export Plug-In . SVG Version: 6.00 Build 0)  -->
<svg version="1.1" id="Layer_1" xmlns="http://www.w3.org/2000/svg" xmlns:xlink="http://www.w3.org/1999/xlink" x="0px" y="0px"
	 viewBox="1945 205 150 150" style="enable-background:new 1945 205 150 150;" xml:space="preserve">
<style type="text/css">
	.st0{fill:url(#SVGID_1_);}
	.st1{fill:#31C5F0;}
</style>
<radialGradient id="SVGID_1_" cx="1356.1351" cy="231.2481" r="4.256104e-002" gradientTransform="matrix(2291.6716 0 0 -2218.7549 -3105818 513329.1875)" gradientUnits="userSpaceOnUse">
	<stop  offset="0" style="stop-color:#34364E;stop-opacity:0.98"/>
	<stop  offset="1" style="stop-color:#0C0824"/>
</radialGradient>
<path class="st0" d="M1955.8,218.3h128.3v124.8h-128.3V218.3z"/>
<path class="st1" d="M1955.8,218.3h128.3v124.8h-128.3V218.3z M1950,349h140V212.5h-140V349z M2044.4,268.5c-4.6,0-6.2,2.3-6.2,4.3
	c0,2.1,1,3.6,7.2,6.8c9.2,4.4,12,8.7,12,14.9c0,9.3-7.1,14.4-16.7,14.4c-5.1,0-9.5-1.1-12-2.5c-0.4-0.2-0.5-0.5-0.5-0.9v-8.6
	c0-0.6,0.3-0.8,0.7-0.5c3.7,2.4,7.9,3.4,11.7,3.4c4.6,0,6.5-1.9,6.5-4.6c0-2.1-1.3-4-7.2-7c-8.3-4-11.7-8-11.7-14.7
	c0-7.5,5.9-13.8,16.1-13.8c5,0,8.5,0.8,10.4,1.6c0.5,0.3,0.6,0.8,0.6,1.2v8c0,0.5-0.3,0.8-0.9,0.6
	C2052,269.5,2048.2,268.5,2044.4,268.5L2044.4,268.5z M1994.2,275.4c1.3,0.1,2.4,0.1,4.7,0.1c6.8,0,13.2-2.4,13.2-11.7
	c0-7.4-4.6-11.1-12.4-11.1c-2.3,0-4.6,0.1-5.6,0.2V275.4z M1983.8,244.5c0-0.4,0.8-0.7,1.3-0.7c3.7-0.2,9.3-0.3,15.1-0.3
	c16.2,0,22.5,8.9,22.5,20.2c0,14.8-10.7,21.2-23.9,21.2c-2.2,0-3-0.1-4.6-0.1v22.4c0,0.5-0.2,0.7-0.7,0.7h-8.9
	c-0.5,0-0.7-0.2-0.7-0.7L1983.8,244.5L1983.8,244.5z"/>
</svg>
