<?xml version="1.0" encoding="utf-8"?>
<!-- Generator: Adobe Illustrator 19.0.0, SVG Export Plug-In . SVG Version: 6.00 Build 0)  -->
<svg version="1.1" id="Layer_1" xmlns="http://www.w3.org/2000/svg" xmlns:xlink="http://www.w3.org/1999/xlink" x="0px" y="0px"
	 viewBox="1623.5 0 150 150" style="enable-background:new 1623.5 0 150 150;" xml:space="preserve">
<style type="text/css">
	.st0{fill:#264DE4;}
	.st1{fill:#2965F1;}
	.st2{fill:#EBEBEB;}
	.st3{fill:#FFFFFF;}
</style>
<path class="st0" d="M1698.4,146.9l-50.4-14L1636.8,7h123.4l-11.2,125.9L1698.4,146.9L1698.4,146.9z"/>
<path class="st1" d="M1739.3,124.9l9.6-107.6h-50.4v118.9L1739.3,124.9L1739.3,124.9z"/>
<path class="st2" d="M1662.6,64l1.4,15.4h34.6V64H1662.6z M1659.8,32.7l1.4,15.4h37.3V32.7L1659.8,32.7L1659.8,32.7z M1698.5,104.1
	L1698.5,104.1l-17.3-4.6l-1.1-12.3h-15.5l2.2,24.2l31.6,8.8l0.1,0V104.1z"/>
<path class="st3" d="M1734.3,64l2.8-31.3h-38.7v15.4h21.8l-1.4,15.8h-20.4v15.4h19l-1.8,20l-17.2,4.6v16.1l31.7-8.8l0.2-2.6
	l3.6-40.7L1734.3,64L1734.3,64z"/>
</svg>
