<?xml version="1.0" encoding="utf-8"?>
<!-- Generator: Adobe Illustrator 19.0.0, SVG Export Plug-In . SVG Version: 6.00 Build 0)  -->
<svg version="1.1" id="Layer_1" xmlns="http://www.w3.org/2000/svg" xmlns:xlink="http://www.w3.org/1999/xlink" x="0px" y="0px"
	 viewBox="2350 0 150 150" style="enable-background:new 2350 0 150 150;" xml:space="preserve">
<style type="text/css">
	.st0{fill:#DE4C36;}
</style>
<path class="st0" d="M2495.8,68.4l-64.3-64.3c-3.7-3.7-9.7-3.7-13.4,0l-13.4,13.4l16.9,16.9c3.9-1.3,8.4-0.4,11.6,2.7
	c3.2,3.2,4,7.7,2.7,11.7l16.3,16.3c3.9-1.4,8.5-0.5,11.7,2.7c4.4,4.4,4.4,11.5,0,16c-4.4,4.4-11.6,4.4-16,0
	c-3.3-3.3-4.1-8.2-2.5-12.3l-15.2-15.2l0,40.1c1.1,0.5,2.1,1.3,3,2.1c4.4,4.4,4.4,11.5,0,16c-4.4,4.4-11.6,4.4-16,0
	c-4.4-4.4-4.4-11.6,0-16c1.1-1.1,2.3-1.9,3.7-2.5V55.5c-1.4-0.6-2.6-1.4-3.7-2.5c-3.3-3.3-4.1-8.2-2.4-12.3L2398.2,24l-44.1,44.1
	c-3.7,3.7-3.7,9.7,0,13.4l64.3,64.3c3.7,3.7,9.7,3.7,13.4,0l64-64C2499.6,78.1,2499.6,72.1,2495.8,68.4"/>
</svg>
