<?xml version="1.0" encoding="utf-8"?>
<!-- Generator: Adobe Illustrator 19.0.0, SVG Export Plug-In . SVG Version: 6.00 Build 0)  -->
<svg version="1.1" id="Layer_1" xmlns="http://www.w3.org/2000/svg" xmlns:xlink="http://www.w3.org/1999/xlink" x="0px" y="0px"
	 viewBox="576.5 205 150 150" style="enable-background:new 576.5 205 150 150;" xml:space="preserve">
<style type="text/css">
	.st0{fill:#D34A47;}
	.st1{fill:#FFFFFF;}
</style>
<path class="st0" d="M669.6,348l1.4-23.2l3.8-6.6c0,0-8.7,3.6-23.4,3.6c-14.6,0-23.2-3.5-23.2-3.5l4.3,7.2l1.5,22.5
	c0,2.4,8,4.4,17.8,4.4C661.7,352.4,669.6,350.5,669.6,348 M665.3,239.8l2.9-11.5l16.2-17l-4.3-3.6L663,225.7l-3.4,13.8
	c-2.6-0.1-5.1-0.1-7.7-0.1c-18,0-32.6,2.1-32.6,4.6c0,2.5,14.6,4.6,32.6,4.6c18,0,32.6-2.1,32.6-4.6
	C684.6,242.1,676.6,240.5,665.3,239.8"/>
<path class="st1" d="M663.6,246.2c0,0-0.6,0.1-2.5,0.1c-1.9,0-3.2,0-3.7-0.5c-0.1-0.1-0.2-0.4-0.2-0.6c0-0.3,0.2-0.5,0.5-0.6
	l0.3,0.4c-0.1,0-0.2,0.1-0.2,0.1c0,0.3,1.9,0.4,3.4,0.4c1.5,0,3.2-0.1,3.2-0.4c0-0.1-0.1-0.1-0.4-0.2l0.3-0.4
	c0.4,0.1,0.7,0.3,0.7,0.7C665,246.1,664.1,246.2,663.6,246.2"/>
<path class="st0" d="M684.3,211.3c0.4-0.5-0.2-1.7-1.4-2.7c-1.2-1-2.4-1.5-2.9-1c-0.4,0.5,0.2,1.7,1.4,2.7
	C682.6,211.3,683.9,211.7,684.3,211.3 M668.9,291.4c-0.4-3.7,8.1-9,5.9-9.2c-4.7,0.3-7,5.5-9.3,10.9c-0.9,2-3.8,10.5-5.7,9.5
	c-1.9-1,2.5-8.1,3.7-12.2c-1.4,1.1-6.7,5.1-8,1.3c-2.2,1.9-6.8,2.9-6.3-2c-1.2,2.1-3.8,4.9-6.9,3.7c-4.1-1.6,2.4-14.6,4-14
	c1.6,0.7-0.3,3.6-0.8,4.8c-1.1,2.5-2.4,5.7-1.5,6.4c1.5,1.1,5.5-4.2,5.6-4.4c0.8-1,2.9-7.5,4.6-6.7c1.7,0.7-4.3,9.3-2,11
	c0.5,0.3,2.3-0.2,3.4-1.4c0.7-0.8,0.5-2.5,2.9-8.4c2.4-5.8,4.6-13,6.3-12.5c1.7,0.6,0.3,4.3-0.3,5.7c-2.8,6.5-7.7,17.2-5.4,16.4
	c2.3-0.8,3.5-0.9,5.7-3.5c2.2-2.6,2.1-7,3.6-6.9c1.5,0.1,1.2,1.5,0.9,2.5c1.5-1.7,7-5.2,8.3-1.7c1.6,4.2-7.9,10.2-5.5,9.9
	c2.3-0.3,6-2.7,7.6-4.8l4.4-39.4c0,0-4.4,3.6-32.5,3.6c-28,0-32-3.6-32-3.6l3.7,35.9c2-5.6,6.7-17,14.1-16.6c3.4,0.2,7.9,6.7,4,6.9
	c-1.6,0.1-1.8-3.2-3.7-3.7c-1.4-0.4-3.3,0.8-4.6,2c-2.5,2.4-7.9,12.1-7.2,16.9c0.9,6.1,8.5-2.1,9.8-4.6c0.9-1.7,1.5-6.9,3.5-6.3
	c2,0.5-0.2,5.8-1.6,10.5c-1.6,5.3-2.4,10.8-4.5,10.2c-2-0.6,1.3-7.4,1.1-8.6c-1.9,1.7-5.4,6.2-9.8,4l2.3,22.3c0,0,6.2,4.9,24.7,4.9
	s24.9-4.8,24.9-4.8l2.9-25.9C676.8,291.9,669.3,296,668.9,291.4"/>
</svg>
