<?xml version="1.0" encoding="utf-8"?>
<!-- Generator: Adobe Illustrator 19.0.0, SVG Export Plug-In . SVG Version: 6.00 Build 0)  -->
<svg version="1.1" id="Layer_1" xmlns="http://www.w3.org/2000/svg" xmlns:xlink="http://www.w3.org/1999/xlink" x="0px" y="0px"
	 viewBox="1623.5 0 150 150" style="enable-background:new 1623.5 0 150 150;" xml:space="preserve">
<style type="text/css">
	.st0{fill:#E44D26;}
	.st1{fill:#F16529;}
	.st2{fill:#EBEBEB;}
	.st3{fill:#FFFFFF;}
</style>
<g>
	<path class="st0" d="M1763.1,1.7l-11.8,131.9l-52.9,14.7l-52.8-14.7L1633.9,1.7H1763.1L1763.1,1.7z"/>
	<path class="st1" d="M1698.5,137.1l42.8-11.9l10.1-112.7h-52.8V137.1z"/>
	<path class="st2" d="M1675.6,44.9h22.9V28.7h-40.6l0.4,4.3l4,44.6h36.2V61.4h-21.4L1675.6,44.9z M1679.3,85.7H1663l2.3,25.4
		l33.1,9.2l0.1,0v-16.8l-0.1,0l-18-4.9L1679.3,85.7L1679.3,85.7z"/>
	<path class="st3" d="M1698.4,77.6h19.9l-1.9,21l-18,4.9v16.8l33.2-9.2l0.2-2.7l3.8-42.6l0.4-4.3h-37.6V77.6L1698.4,77.6z
		 M1698.4,44.8L1698.4,44.8l39.1,0l0.3-3.6l0.7-8.2l0.4-4.3h-40.5V44.8L1698.4,44.8z"/>
</g>
</svg>
