<?xml version="1.0" encoding="utf-8"?>
<!-- Generator: Adobe Illustrator 19.0.0, SVG Export Plug-In . SVG Version: 6.00 Build 0)  -->
<svg version="1.1" id="Layer_1" xmlns="http://www.w3.org/2000/svg" xmlns:xlink="http://www.w3.org/1999/xlink" x="0px" y="0px"
	 viewBox="1945 205 150 150" style="enable-background:new 1945 205 150 150;" xml:space="preserve">
<style type="text/css">
	.st0{clip-path:url(#SVGID_2_);}
	.st1{fill:#00749A;}
	.st2{fill:#464342;}
</style>
<g>
	<defs>
		<rect id="SVGID_1_" x="1948.5" y="208.5" width="143" height="143"/>
	</defs>
	<clipPath id="SVGID_2_">
		<use xlink:href="#SVGID_1_"  style="overflow:visible;"/>
	</clipPath>
	<g class="st0">
		<path class="st1" d="M2314,264.8h-24.8v2.6c7.8,0,9,1.7,9,11.5v17.7c0,9.8-1.2,11.6-9,11.6c-6-0.8-10-4-15.5-10.1l-6.4-6.9
			c8.6-1.5,13.2-6.9,13.2-13c0-7.6-6.5-13.4-18.7-13.4h-24.4v2.6c7.8,0,9,1.7,9,11.5v17.7c0,9.8-1.2,11.6-9,11.6v2.6h27.6v-2.6
			c-7.8,0-9-1.8-9-11.6v-5h2.4l15.4,19.3h40.3c19.8,0,28.4-10.5,28.4-23.1C2342.4,275.2,2333.8,264.8,2314,264.8L2314,264.8z
			 M2255.9,287.4v-18.4h5.7c6.2,0,9,4.3,9,9.3c0,4.9-2.8,9.1-9,9.1L2255.9,287.4z M2314.4,306.6h-1c-5,0-5.7-1.2-5.7-7.6v-30.1h6.7
			c14.4,0,17,10.5,17,18.7C2331.4,296.1,2328.8,306.6,2314.4,306.6z M2160.2,292.5l9.6-28.3c2.8-8.2,1.5-10.5-7.3-10.5v-2.8h26.1
			v2.8c-8.7,0-10.8,2.1-14.3,12.2l-15.8,47.4h-1.8l-14.1-43.4l-14.4,43.4h-1.8l-15.4-47.4c-3.3-10.1-5.5-12.2-13.6-12.2v-2.8h30.8
			v2.8c-8.2,0-10.4,1.9-7.5,10.5l9.3,28.3l14-41.6h2.6L2160.2,292.5L2160.2,292.5z M2207.3,312.7c-15.2,0-27.7-11.2-27.7-24.9
			c0-13.6,12.5-24.8,27.7-24.8s27.7,11.2,27.7,24.8C2235,301.5,2222.5,312.7,2207.3,312.7z M2207.3,267.3
			c-12.7,0-17.2,11.5-17.2,20.5c0,9.1,4.4,20.5,17.2,20.5c12.9,0,17.3-11.4,17.3-20.5C2224.6,278.8,2220.2,267.3,2207.3,267.3
			L2207.3,267.3z"/>
		<path class="st2" d="M2376.6,308.2v2.8h-31.7v-2.8c9.3,0,10.9-2.4,10.9-16.2v-22.2c0-13.9-1.7-16.1-10.9-16.1v-2.8h28.7
			c14.3,0,22.2,7.3,22.2,17.2c0,9.6-7.9,17-22.2,17h-7.9v6.8C2365.7,305.8,2367.3,308.2,2376.6,308.2L2376.6,308.2z M2373.5,255.9
			h-7.9V280h7.9c7.8,0,11.4-5.4,11.4-11.9C2384.9,261.5,2381.3,255.9,2373.5,255.9z M2490.9,297.9l-0.7,2.5
			c-1.2,4.6-2.8,6.2-12.6,6.2h-1.9c-7.2,0-8.5-1.7-8.5-11.5v-6.4c10.8,0,11.6,1,11.6,8.2h2.6v-20.6h-2.6c0,7.2-0.8,8.2-11.6,8.2
			v-15.5h7.6c9.8,0,11.4,1.7,12.6,6.2l0.7,2.6h2.2l-1-13h-40.7v2.6c7.8,0,9,1.7,9,11.5v17.7c0,9-1.1,11.3-7.2,11.6
			c-5.8-0.9-9.8-4.1-15.3-10.1l-6.4-6.9c8.6-1.5,13.2-6.9,13.2-13c0-7.6-6.5-13.4-18.7-13.4h-24.4v2.6c7.8,0,9,1.7,9,11.5v17.7
			c0,9.8-1.2,11.6-9,11.6v2.6h27.6v-2.6c-7.8,0-9-1.8-9-11.6v-5h2.4l15.4,19.3h57l0.8-13L2490.9,297.9L2490.9,297.9z M2417.5,287.4
			v-18.4h5.7c6.2,0,9,4.3,9,9.3c0,4.9-2.8,9.1-9,9.1L2417.5,287.4z M2519,312.7c-5.5,0-10.4-2.9-12.5-4.7c-0.7,0.7-1.9,2.8-2.2,4.7
			h-2.6v-19.1h2.8c1.1,9.1,7.5,14.5,15.7,14.5c4.4,0,8-2.5,8-6.6c0-3.6-3.2-6.4-8.9-9l-7.9-3.7c-5.5-2.6-9.7-7.2-9.7-13.3
			c0-6.7,6.2-12.3,14.8-12.3c4.6,0,8.5,1.7,10.8,3.6c0.7-0.6,1.4-2.1,1.8-3.7h2.6v16.4h-2.9c-1-6.5-4.6-11.9-11.9-11.9
			c-3.9,0-7.5,2.2-7.5,5.7c0,3.6,2.9,5.5,9.6,8.6l7.6,3.7c6.7,3.2,9.3,8.3,9.3,12.5C2535.9,306.6,2528.3,312.7,2519,312.7
			L2519,312.7z M2561.7,312.7c-5.5,0-10.4-2.9-12.5-4.7c-0.7,0.7-1.9,2.8-2.2,4.7h-2.6v-19.1h2.8c1.1,9.1,7.5,14.5,15.7,14.5
			c4.4,0,8-2.5,8-6.6c0-3.6-3.2-6.4-8.9-9l-7.9-3.7c-5.5-2.6-9.7-7.2-9.7-13.3c0-6.7,6.2-12.3,14.8-12.3c4.6,0,8.5,1.7,10.8,3.6
			c0.7-0.6,1.4-2.1,1.8-3.7h2.6v16.4h-2.9c-1-6.5-4.6-11.9-11.9-11.9c-3.9,0-7.5,2.2-7.5,5.7c0,3.6,2.9,5.5,9.6,8.6l7.6,3.7
			c6.7,3.2,9.3,8.3,9.3,12.5C2578.6,306.6,2571,312.7,2561.7,312.7L2561.7,312.7z"/>
		<g>
			<path class="st1" d="M1958.7,280c0,24.3,14.1,45.3,34.6,55.2L1964,255C1960.5,262.9,1958.7,271.4,1958.7,280L1958.7,280z
				 M2061.4,276.9c0-7.6-2.7-12.8-5.1-16.9c-3.1-5.1-6-9.3-6-14.4c0-5.6,4.3-10.9,10.3-10.9c0.3,0,0.5,0,0.8,0
				c-10.9-10-25.4-16.1-41.4-16.1c-21.4,0-40.3,11-51.2,27.6c1.4,0,2.8,0.1,3.9,0.1c6.4,0,16.3-0.8,16.3-0.8
				c3.3-0.2,3.7,4.7,0.4,5.1c0,0-3.3,0.4-7,0.6l22.3,66.4l13.4-40.2l-9.6-26.2c-3.3-0.2-6.4-0.6-6.4-0.6c-3.3-0.2-2.9-5.2,0.4-5.1
				c0,0,10.1,0.8,16.2,0.8c6.4,0,16.3-0.8,16.3-0.8c3.3-0.2,3.7,4.7,0.4,5.1c0,0-3.3,0.4-7,0.6l22.2,65.9l6.1-20.4
				C2059.4,288.2,2061.4,282.2,2061.4,276.9L2061.4,276.9z"/>
			<path class="st1" d="M2021.1,285.4l-18.4,53.5c5.6,1.7,11.5,2.5,17.3,2.5c7.1,0,14-1.2,20.4-3.5c-0.2-0.3-0.3-0.6-0.4-0.8
				L2021.1,285.4z M2073.8,250.6c0.3,2,0.4,4.1,0.4,6.3c0,6.2-1.2,13.2-4.7,22l-18.7,54.2c18.2-10.6,30.5-30.4,30.5-53
				C2081.3,269.7,2078.8,259.6,2073.8,250.6L2073.8,250.6z"/>
			<path class="st1" d="M2020,208.5c-39.4,0-71.5,32.1-71.5,71.5c0,39.4,32.1,71.5,71.5,71.5c39.4,0,71.5-32.1,71.5-71.5
				C2091.5,240.6,2059.4,208.5,2020,208.5z M2020,348.2c-37.6,0-68.2-30.6-68.2-68.2c0-37.6,30.6-68.2,68.2-68.2
				c37.6,0,68.2,30.6,68.2,68.2C2088.2,317.6,2057.6,348.2,2020,348.2L2020,348.2z"/>
		</g>
	</g>
</g>
</svg>
