<?xml version="1.0" encoding="utf-8"?>
<!-- Generator: Adobe Illustrator 19.0.0, SVG Export Plug-In . SVG Version: 6.00 Build 0)  -->
<svg version="1.1" xmlns="http://www.w3.org/2000/svg" xmlns:xlink="http://www.w3.org/1999/xlink" x="0px" y="0px"
	 viewBox="-223.4 187.9 139.9 40.6" style="enable-background:new -223.4 187.9 139.9 40.6;" xml:space="preserve">
<style type="text/css">
	.st0{fill:#FFFFFF;}
	.st1{fill:#941821;}
	.st2{display:none;}
	.st3{display:inline;fill:#FFFFFF;}
	.st4{display:inline;fill:none;}
</style>
<g id="Layer_3">
	<g>
		<path class="st0" d="M-179.1,216.3c-0.5,0.8-1.4,1.5-2.7,2.1c-1.2,0.6-2.8,0.9-4.8,0.9c-2.5,0-4.5-0.8-6.1-2.3
			c-1.6-1.6-2.4-3.6-2.4-6v-4.3c0-2.5,0.7-4.5,2.2-6s3.4-2.3,5.8-2.3c2.4,0,4.3,0.6,5.6,1.8c1.3,1.2,2,2.7,2,4.6l0,0.1h-3.2
			c-0.1-1.1-0.5-2-1.2-2.7c-0.7-0.7-1.8-1-3.1-1c-1.4,0-2.5,0.5-3.4,1.6c-0.9,1.1-1.3,2.4-1.3,4v4.3c0,1.6,0.5,3,1.4,4
			c0.9,1.1,2.2,1.6,3.6,1.6c1.1,0,1.9-0.1,2.6-0.4s1.1-0.5,1.4-0.9v-4.1h-4v-2.5h7.4V216.3z"/>
		<path class="st0" d="M-159,210.7c0,2.5-0.8,4.6-2.3,6.2c-1.6,1.6-3.6,2.5-6.1,2.5c-2.4,0-4.4-0.8-6-2.5c-1.5-1.6-2.3-3.7-2.3-6.2
			V207c0-2.5,0.8-4.5,2.3-6.2c1.5-1.6,3.5-2.5,5.9-2.5c2.5,0,4.5,0.8,6.1,2.5c1.6,1.6,2.3,3.7,2.3,6.2V210.7z M-162.4,207
			c0-1.7-0.5-3.1-1.4-4.2c-0.9-1.1-2.1-1.6-3.7-1.6c-1.5,0-2.7,0.5-3.5,1.6c-0.9,1.1-1.3,2.5-1.3,4.2v3.7c0,1.7,0.4,3.1,1.3,4.2
			c0.9,1.1,2.1,1.6,3.6,1.6c1.6,0,2.8-0.5,3.7-1.6s1.3-2.5,1.3-4.2V207z M-166.3,193.2h3.8l0,0.1l-3.8,3.6h-2.6L-166.3,193.2z"/>
		<path class="st0" d="M-151.9,210.6v8.4h-3.4v-20.4h7.5c2.3,0,4,0.5,5.3,1.5c1.2,1,1.9,2.5,1.9,4.4c0,1.1-0.3,2-0.8,2.7
			c-0.5,0.8-1.3,1.4-2.4,1.8c1.1,0.4,2,1,2.5,1.8s0.8,1.8,0.8,3v1.7c0,0.6,0.1,1.2,0.2,1.7s0.4,1,0.8,1.3v0.3h-3.5
			c-0.4-0.3-0.6-0.8-0.7-1.5s-0.2-1.3-0.2-1.9V214c0-1-0.3-1.9-0.9-2.5c-0.6-0.6-1.4-0.9-2.5-0.9H-151.9z M-151.9,207.9h3.9
			c1.4,0,2.4-0.3,3-0.8c0.6-0.5,0.9-1.3,0.9-2.4c0-1-0.3-1.8-0.9-2.4c-0.6-0.6-1.6-0.9-2.8-0.9h-4.1V207.9z"/>
		<path class="st0" d="M-125.3,213.8c0-0.8-0.3-1.5-0.9-2.1c-0.6-0.5-1.7-1-3.3-1.4c-2.3-0.6-4-1.4-5.3-2.4c-1.2-1-1.8-2.3-1.8-3.9
			c0-1.6,0.7-3,2-4.1c1.4-1.1,3.1-1.6,5.3-1.6c2.2,0,4,0.6,5.4,1.8c1.4,1.2,2,2.7,2,4.3l0,0.1h-3.3c0-1-0.4-1.9-1.1-2.5
			c-0.7-0.6-1.7-1-3-1c-1.2,0-2.2,0.3-2.9,0.8c-0.7,0.5-1,1.2-1,2.1c0,0.8,0.4,1.4,1.1,1.9c0.7,0.5,1.9,1,3.6,1.5
			c2.2,0.6,3.9,1.4,5,2.4c1.1,1,1.7,2.4,1.7,4c0,1.7-0.7,3-2,4c-1.4,1-3.1,1.5-5.3,1.5c-2.1,0-4-0.6-5.6-1.7s-2.4-2.7-2.3-4.6l0-0.1
			h3.3c0,1.2,0.4,2.2,1.3,2.8c0.9,0.6,2,0.9,3.3,0.9c1.3,0,2.2-0.3,2.9-0.8C-125.7,215.4-125.3,214.7-125.3,213.8z"/>
		<path class="st0" d="M-112.6,210.3h-2.3v8.8h-3.4v-20.4h3.4v8.6h1.9l6.4-8.6h4l-7.4,9.7l8,10.6h-4.2L-112.6,210.3z"/>
		<path class="st0" d="M-88.9,214.3h-8l-1.6,4.8h-3.4l7.5-20.4h3.2l7.4,20.4h-3.5L-88.9,214.3z M-95.9,211.5h6l-3-8.7h-0.1
			L-95.9,211.5z"/>
	</g>
	
		<image style="display:none;overflow:visible;" width="109" height="32" xlink:href="../../../../../../WEB/CV/Strona/obrazki/Logo i podpis/zerif.png"  transform="matrix(1 0 0 1 -211 193.77)">
	</image>
	<rect x="-223.4" y="187.9" class="st1" width="26.6" height="40.6"/>
	<g>
		<path class="st0" d="M-213.4,216.3h10.6v2.7h-14.7v-2.1l10.2-15.5h-10.1v-2.7h14.2v2L-213.4,216.3z M-208.4,196.6h-3.6v-3.1h3.6
			V196.6z"/>
	</g>
</g>
<g id="Layer_1" class="st2">
	<title>clear-view-escapes</title>
	<path class="st3" d="M-206.8,207.3v4.8h-13.6v5.5h12.5v4.4h-12.5v6.3h13.9v4.8H-226v-25.7H-206.8z"/>
	<path class="st3" d="M-198.9,228.4c0.2,0.4,0.5,0.7,0.9,1c0.4,0.3,0.8,0.4,1.2,0.6c0.5,0.1,1,0.2,1.5,0.2c0.4,0,0.8,0,1.1-0.1
		c0.4-0.1,0.7-0.2,1.1-0.4c0.3-0.2,0.6-0.4,0.9-0.8c0.2-0.3,0.3-0.7,0.3-1.1c-0.1-0.9-0.7-1.6-1.5-1.7c-1.4-0.5-2.8-0.9-4.3-1.2
		c-0.7-0.2-1.5-0.4-2.2-0.6c-0.7-0.2-1.3-0.5-1.9-0.9c-0.5-0.4-1-0.8-1.3-1.4c-0.4-0.6-0.5-1.3-0.5-2.1c-0.1-1,0.2-2.1,0.7-3
		c0.5-0.8,1.1-1.4,1.9-1.8c0.8-0.5,1.7-0.8,2.6-0.9c1-0.2,2-0.3,3-0.3c1,0,2,0.1,2.9,0.3c0.9,0.2,1.8,0.5,2.5,1
		c0.7,0.5,1.3,1.1,1.8,1.9c0.5,0.9,0.8,1.8,0.9,2.8h-4.9c0-0.8-0.4-1.6-1.1-2c-0.7-0.4-1.5-0.5-2.4-0.5c-0.3,0-0.6,0-0.9,0.1
		c-0.3,0-0.6,0.1-0.9,0.2c-0.3,0.1-0.5,0.3-0.7,0.5c-0.2,0.3-0.3,0.6-0.3,0.9c0,0.4,0.2,0.8,0.5,1.1c0.4,0.3,0.8,0.6,1.3,0.7
		c0.6,0.2,1.2,0.4,1.8,0.5l2.2,0.5c0.7,0.2,1.5,0.4,2.2,0.6c0.7,0.2,1.3,0.6,1.9,1c0.5,0.4,1,0.9,1.3,1.5c0.4,0.7,0.5,1.4,0.5,2.2
		c0.1,2-0.9,4-2.7,5.1c-0.8,0.5-1.8,0.9-2.7,1c-1,0.2-2.1,0.3-3.1,0.3c-1.1,0-2.1-0.1-3.2-0.3c-1-0.2-1.9-0.6-2.7-1.1
		c-0.8-0.5-1.5-1.2-2-2c-0.6-0.9-0.8-2-0.9-3.1h4.9C-199.3,227.5-199.2,228-198.9,228.4z"/>
	<path class="st3" d="M-175,217.8c-0.7,0-1.4,0.2-2.1,0.6c-0.6,0.4-1,0.9-1.4,1.4c-0.4,0.6-0.6,1.3-0.7,1.9
		c-0.1,0.7-0.2,1.4-0.2,2.1c0,0.7,0.1,1.3,0.2,2c0.1,0.7,0.4,1.3,0.7,1.9c0.3,0.6,0.8,1,1.3,1.4c0.6,0.4,1.3,0.6,2,0.5
		c1,0.1,2.1-0.3,2.8-1c0.7-0.8,1.1-1.7,1.2-2.8h4.9c-0.2,2.2-1.2,4.2-2.9,5.7c-1.7,1.3-3.9,2-6.1,1.9c-1.3,0-2.6-0.2-3.8-0.7
		c-1.1-0.4-2.2-1.1-3-2c-0.8-0.9-1.5-1.9-1.9-3c-0.5-1.2-0.7-2.5-0.7-3.8c0-1.4,0.2-2.7,0.6-4c0.4-1.2,1.1-2.2,1.9-3.1
		c0.8-0.9,1.9-1.6,3-2.1c1.3-0.5,2.6-0.8,4-0.8c1.1,0,2.2,0.1,3.2,0.4c1,0.3,1.9,0.7,2.7,1.3c1.7,1.2,2.8,3.2,2.8,5.3h-5
		c-0.1-1.9-1.8-3.3-3.6-3.2C-174.9,217.8-175,217.8-175,217.8z"/>
	<path class="st3" d="M-163.5,220.1c0-1.1,0.3-2.1,0.9-3c0.5-0.8,1.2-1.4,2-1.9c0.9-0.5,1.8-0.8,2.8-1c1-0.2,2-0.3,3.1-0.3
		c1,0,1.9,0.1,2.8,0.2c0.9,0.1,1.8,0.4,2.6,0.8c0.8,0.4,1.5,0.9,2,1.6c0.5,0.8,0.8,1.8,0.8,2.7v9.7c0,0.8,0,1.6,0.1,2.4
		c0,0.6,0.2,1.2,0.5,1.7h-5.2c-0.1-0.3-0.2-0.6-0.2-0.9c-0.1-0.3-0.1-0.6-0.1-0.9c-0.8,0.8-1.8,1.4-2.9,1.8
		c-1.1,0.3-2.2,0.5-3.4,0.5c-0.8,0-1.7-0.1-2.5-0.3c-0.7-0.2-1.4-0.5-2-1c-0.6-0.5-1-1.1-1.4-1.7c-0.3-0.8-0.5-1.6-0.5-2.5
		c0-0.9,0.2-1.8,0.6-2.6c0.3-0.7,0.8-1.2,1.4-1.6c0.6-0.4,1.3-0.7,2-0.9c0.8-0.2,1.5-0.4,2.3-0.5c0.8-0.1,1.5-0.2,2.3-0.3
		c0.7-0.1,1.3-0.2,2-0.3c0.5-0.1,1-0.3,1.4-0.6c0.3-0.3,0.5-0.8,0.4-1.2c0-0.5-0.1-0.9-0.3-1.3c-0.2-0.3-0.4-0.5-0.7-0.7
		c-0.3-0.2-0.6-0.3-1-0.4c-0.4-0.1-0.9-0.1-1.3-0.1c-0.8,0-1.7,0.2-2.4,0.6c-0.6,0.5-1,1.3-1,2.2L-163.5,220.1L-163.5,220.1z
		 M-151.7,223.9c-0.2,0.2-0.5,0.4-0.8,0.4c-0.3,0.1-0.7,0.2-1,0.3c-0.4,0.1-0.8,0.2-1.2,0.2s-0.8,0.1-1.2,0.2
		c-0.4,0.1-0.8,0.2-1.1,0.3c-0.4,0.1-0.7,0.3-1,0.5c-0.3,0.2-0.5,0.5-0.7,0.8c-0.2,0.4-0.3,0.8-0.3,1.2c0,0.4,0.1,0.8,0.3,1.2
		c0.2,0.3,0.4,0.6,0.7,0.7c0.3,0.2,0.6,0.3,1,0.4c0.4,0.1,0.8,0.1,1.2,0.1c0.8,0,1.6-0.1,2.3-0.5c0.5-0.3,0.9-0.7,1.2-1.2
		c0.3-0.4,0.4-0.9,0.5-1.4c0.1-0.4,0.1-0.8,0.1-1.2L-151.7,223.9L-151.7,223.9z"/>
	<path class="st3" d="M-137.7,214.4v2.4h0.1c0.6-1,1.4-1.7,2.4-2.2c1-0.5,2.1-0.7,3.2-0.7c1.3,0,2.6,0.3,3.8,0.8
		c1,0.5,1.9,1.3,2.6,2.2c0.7,1,1.2,2,1.6,3.2c0.3,1.2,0.5,2.5,0.5,3.8c0,1.2-0.2,2.4-0.5,3.6c-0.3,1.1-0.8,2.1-1.5,3.1
		c-0.7,0.9-1.6,1.6-2.6,2.1c-1.1,0.5-2.3,0.8-3.6,0.8c-1.1,0-2.2-0.2-3.2-0.7c-1-0.5-1.8-1.2-2.4-2.1h0v8.8h-5.1v-25.1H-137.7z
		 M-131.1,229.2c0.6-0.3,1-0.8,1.4-1.4c0.4-0.6,0.6-1.2,0.7-1.9c0.1-0.7,0.2-1.5,0.2-2.2c0-0.7-0.1-1.5-0.2-2.2
		c-0.1-0.7-0.4-1.3-0.8-1.9c-0.4-0.6-0.8-1-1.4-1.4c-0.6-0.3-1.4-0.5-2.1-0.4c-0.7,0-1.5,0.2-2.1,0.5c-0.6,0.3-1,0.8-1.4,1.3
		c-0.4,0.6-0.6,1.2-0.7,1.9c-0.1,0.7-0.2,1.5-0.2,2.2c0,0.7,0.1,1.5,0.2,2.2c0.1,0.6,0.4,1.2,0.8,1.8
		C-135.4,229.6-133,230.2-131.1,229.2z"/>
	<path class="st3" d="M-115.1,228.6c1.7,1.4,4.1,1.5,6,0.3c0.6-0.4,1.1-1,1.4-1.6h4.5c-0.5,1.9-1.7,3.6-3.3,4.8
		c-1.6,1-3.5,1.5-5.4,1.4c-1.4,0-2.7-0.2-4-0.7c-1.1-0.4-2.2-1.1-3-2c-0.8-0.9-1.5-1.9-1.9-3.1c-0.5-1.3-0.7-2.6-0.7-4
		c0-1.3,0.2-2.6,0.7-3.9c0.9-2.3,2.7-4.2,4.9-5.2c1.2-0.5,2.5-0.8,3.9-0.8c1.4,0,2.9,0.3,4.1,0.9c1.1,0.6,2.1,1.4,2.9,2.5
		c0.8,1.1,1.4,2.3,1.7,3.6c0.3,1.4,0.5,2.7,0.4,4.1h-13.5C-116.4,226.3-116,227.6-115.1,228.6z M-109.3,218.8
		c-0.7-0.7-1.8-1.1-2.8-1c-0.7,0-1.4,0.1-2,0.4c-0.5,0.2-0.9,0.6-1.3,1c-0.3,0.4-0.5,0.8-0.7,1.3c-0.1,0.4-0.2,0.8-0.2,1.2h8.3
		C-108.2,220.7-108.7,219.6-109.3,218.8z"/>
	<path class="st3" d="M-95.6,228.4c0.2,0.4,0.5,0.7,0.9,1c0.4,0.3,0.8,0.4,1.2,0.6c0.5,0.1,1,0.2,1.5,0.2c0.4,0,0.8,0,1.1-0.1
		c0.4-0.1,0.7-0.2,1.1-0.4c0.3-0.2,0.6-0.4,0.8-0.7c0.2-0.3,0.3-0.7,0.3-1.1c-0.1-0.9-0.7-1.6-1.6-1.8c-1.4-0.5-2.8-0.9-4.2-1.2
		c-0.7-0.2-1.5-0.4-2.2-0.6c-0.7-0.2-1.3-0.5-1.9-0.9c-0.5-0.4-1-0.8-1.3-1.4c-0.4-0.6-0.5-1.3-0.5-2.1c-0.1-1,0.2-2.1,0.7-3
		c0.5-0.8,1.1-1.4,1.9-1.8c0.8-0.5,1.7-0.8,2.6-0.9c1-0.2,2-0.3,3-0.3c1,0,2,0.1,2.9,0.3c0.9,0.2,1.8,0.5,2.5,1
		c0.7,0.5,1.4,1.1,1.9,1.8c0.5,0.9,0.8,1.8,0.9,2.9h-4.9c0-0.8-0.4-1.6-1.1-2c-0.7-0.4-1.5-0.5-2.4-0.5c-0.3,0-0.6,0-0.9,0.1
		c-0.3,0-0.6,0.1-0.9,0.2c-0.3,0.1-0.5,0.3-0.7,0.5c-0.2,0.3-0.3,0.6-0.3,0.9c0,0.4,0.2,0.8,0.5,1.1c0.4,0.3,0.8,0.6,1.3,0.7
		c0.6,0.2,1.2,0.4,1.9,0.5l2.1,0.5c0.7,0.2,1.5,0.4,2.2,0.6c0.7,0.2,1.3,0.6,1.9,1c0.5,0.4,1,0.9,1.3,1.5c0.4,0.7,0.5,1.4,0.5,2.2
		c0.1,2-0.9,4-2.7,5c-0.8,0.5-1.8,0.9-2.7,1.1c-1,0.2-2.1,0.3-3.1,0.3c-1.1,0-2.1-0.1-3.2-0.3c-1-0.2-1.9-0.6-2.8-1.1
		c-0.8-0.5-1.5-1.2-2-2c-0.6-0.9-0.8-2-0.8-3.1h4.9C-96,227.5-95.9,228-95.6,228.4z"/>
	<path class="st3" d="M-202.6,186.1c-0.1-0.5-0.3-1-0.6-1.4c-0.2-0.4-0.5-0.8-0.9-1.1c-0.4-0.3-0.8-0.6-1.3-0.7
		c-0.6-0.2-1.1-0.3-1.7-0.3c-0.9,0-1.7,0.2-2.5,0.6c-0.7,0.4-1.3,0.9-1.7,1.5c-0.5,0.7-0.8,1.4-1,2.2c-0.4,1.6-0.4,3.4,0,5
		c0.2,0.8,0.5,1.5,1,2.2c0.4,0.6,1,1.2,1.7,1.5c0.8,0.4,1.6,0.6,2.5,0.6c0.6,0,1.3-0.1,1.9-0.3c0.5-0.2,1-0.6,1.4-1
		c0.4-0.4,0.7-0.9,0.9-1.5c0.2-0.6,0.4-1.2,0.4-1.8h3.1c-0.1,1-0.3,2-0.7,2.9c-0.4,0.9-0.9,1.6-1.6,2.3c-0.7,0.6-1.5,1.2-2.4,1.5
		c-1,0.4-2,0.5-3,0.5c-1.2,0-2.5-0.2-3.6-0.7c-1-0.5-1.9-1.1-2.7-2c-0.8-0.9-1.3-1.9-1.7-3c-0.4-1.2-0.6-2.4-0.6-3.6
		c0-1.2,0.2-2.4,0.6-3.6c0.4-1.1,0.9-2.1,1.7-3c0.7-0.8,1.7-1.5,2.7-2c1.1-0.5,2.4-0.8,3.7-0.8c1,0,1.9,0.1,2.8,0.4
		c0.8,0.3,1.6,0.7,2.3,1.2c0.7,0.5,1.2,1.2,1.7,1.9c0.4,0.8,0.7,1.7,0.8,2.6L-202.6,186.1L-202.6,186.1z"/>
	<path class="st3" d="M-197,180.4h2.9v17.9h-2.9V180.4z"/>
	<path class="st3" d="M-188.8,192.6c0,0.5,0.1,1,0.2,1.4c0.1,0.4,0.3,0.9,0.6,1.2c0.3,0.4,0.7,0.6,1.1,0.8c0.5,0.2,1,0.3,1.6,0.3
		c0.7,0,1.4-0.2,2-0.6c0.5-0.4,0.9-1,1.1-1.6h2.7c-0.3,1.3-1,2.5-2.1,3.3c-0.5,0.4-1.1,0.7-1.7,0.9c-0.6,0.2-1.3,0.3-2,0.3
		c-0.9,0-1.8-0.2-2.7-0.5c-0.8-0.3-1.4-0.8-2-1.4c-0.6-0.6-1-1.3-1.3-2.1c-0.3-0.9-0.4-1.8-0.4-2.8c0-0.9,0.1-1.8,0.4-2.6
		c0.3-0.8,0.7-1.5,1.3-2.2c1.1-1.3,2.8-2,4.6-2c1,0,1.9,0.2,2.7,0.6c0.8,0.4,1.5,1,2,1.7c0.5,0.7,0.9,1.5,1.2,2.4
		c0.2,0.9,0.3,1.9,0.2,2.8H-188.8L-188.8,192.6z M-182.1,190.7c0-0.4-0.1-0.9-0.3-1.3c-0.1-0.4-0.4-0.8-0.7-1.1
		c-0.3-0.3-0.6-0.6-1-0.8c-0.4-0.2-0.9-0.3-1.3-0.3c-0.5,0-0.9,0.1-1.4,0.3c-0.4,0.2-0.8,0.4-1.1,0.7c-0.3,0.3-0.5,0.7-0.7,1.1
		c-0.2,0.4-0.3,0.9-0.3,1.4C-188.8,190.7-182.1,190.7-182.1,190.7z"/>
	<path class="st3" d="M-166.3,195.4c0,0.3,0,0.5,0.1,0.8c0.1,0.2,0.3,0.3,0.5,0.2h0.3c0.1,0,0.3,0,0.4,0v2l-0.4,0l-0.5,0.1l-0.5,0.1
		h-0.4c-0.5,0-1-0.1-1.5-0.4c-0.4-0.3-0.7-0.7-0.8-1.2c-0.6,0.6-1.3,1-2.1,1.2c-0.8,0.2-1.6,0.4-2.4,0.4c-0.6,0-1.1-0.1-1.7-0.2
		c-0.5-0.1-1-0.4-1.4-0.7c-0.4-0.3-0.8-0.7-1-1.2c-0.2-0.5-0.4-1.1-0.4-1.7c0-0.7,0.1-1.4,0.4-2c0.3-0.5,0.7-0.9,1.2-1.2
		c0.5-0.3,1-0.5,1.6-0.6c0.6-0.1,1.2-0.2,1.8-0.3c0.5-0.1,1-0.2,1.5-0.2c0.4,0,0.8-0.1,1.2-0.2c0.3-0.1,0.6-0.2,0.8-0.4
		c0.2-0.3,0.3-0.6,0.3-0.9c0-0.3-0.1-0.6-0.3-0.9c-0.2-0.2-0.4-0.4-0.7-0.5c-0.3-0.1-0.6-0.2-0.9-0.3c-0.3,0-0.6-0.1-0.9-0.1
		c-0.7,0-1.4,0.1-2,0.5c-0.5,0.4-0.8,0.9-0.9,1.6h-2.8c0-0.7,0.2-1.4,0.6-2.1c0.3-0.5,0.8-1,1.3-1.3c0.6-0.3,1.2-0.6,1.8-0.7
		c0.7-0.1,1.4-0.2,2.1-0.2c0.6,0,1.3,0.1,1.9,0.2c0.6,0.1,1.1,0.3,1.6,0.6c0.5,0.3,0.9,0.7,1.2,1.2c0.3,0.5,0.5,1.2,0.5,1.8V195.4z
		 M-169.1,191.8c-0.5,0.3-1,0.5-1.6,0.5c-0.7,0.1-1.3,0.1-1.9,0.3c-0.3,0-0.6,0.1-0.9,0.2c-0.3,0.1-0.5,0.2-0.8,0.4
		c-0.2,0.2-0.4,0.4-0.5,0.6c-0.1,0.3-0.2,0.6-0.2,0.9c0,0.3,0.1,0.6,0.3,0.8c0.2,0.2,0.4,0.4,0.7,0.5c0.3,0.1,0.6,0.2,0.9,0.3
		c0.3,0,0.6,0.1,0.8,0.1c0.3,0,0.7,0,1-0.1c0.4-0.1,0.7-0.2,1.1-0.4c0.3-0.2,0.6-0.5,0.8-0.8c0.2-0.3,0.3-0.7,0.3-1.1
		C-169.1,193.9-169.1,191.8-169.1,191.8z"/>
	<path class="st3" d="M-163.2,185.3h2.7v2.5h0.1c0.1-0.4,0.3-0.7,0.5-1c0.3-0.3,0.5-0.6,0.9-0.9c0.3-0.3,0.7-0.5,1.1-0.7
		c0.4-0.2,0.8-0.2,1.3-0.3c0.2,0,0.5,0,0.7,0h0.4v2.8l-0.7-0.1c-0.2,0-0.4,0-0.6,0c-0.5,0-0.9,0.1-1.4,0.3c-0.4,0.2-0.8,0.4-1.1,0.8
		c-0.3,0.4-0.6,0.9-0.8,1.4c-0.2,0.6-0.3,1.3-0.3,1.9v6.2h-2.9V185.3z"/>
	<path class="st3" d="M-149.1,180.4h3.3l4.5,14.1h0.1l4.5-14.1h3.2l-6.1,17.9h-3.5L-149.1,180.4z"/>
	<path class="st3" d="M-131.9,180.4h2.8v2.7h-2.8V180.4z M-131.9,185.4h2.8v12.9h-2.8V185.4L-131.9,185.4z"/>
	<path class="st3" d="M-123.7,192.6c0,0.5,0.1,1,0.2,1.4c0.1,0.4,0.3,0.9,0.6,1.2c0.3,0.4,0.7,0.6,1.1,0.8c0.5,0.2,1,0.3,1.6,0.3
		c0.7,0,1.4-0.2,2-0.5c0.5-0.4,0.9-1,1.1-1.6h2.7c-0.3,1.3-1,2.5-2.1,3.3c-0.5,0.4-1.1,0.7-1.7,0.9c-0.6,0.2-1.3,0.3-2,0.3
		c-0.9,0-1.8-0.2-2.7-0.5c-0.8-0.3-1.4-0.8-2-1.4c-0.6-0.6-1-1.4-1.2-2.1c-0.3-0.9-0.4-1.8-0.4-2.8c0-0.9,0.1-1.8,0.4-2.6
		c0.3-0.8,0.7-1.5,1.3-2.2c1.1-1.3,2.8-2,4.6-2c1,0,1.9,0.2,2.7,0.6c0.8,0.4,1.5,1,2,1.7c0.5,0.7,0.9,1.5,1.2,2.4
		c0.2,0.9,0.3,1.9,0.2,2.8L-123.7,192.6L-123.7,192.6z M-117,190.7c0-0.4-0.1-0.9-0.3-1.3c-0.1-0.4-0.4-0.8-0.7-1.1
		c-0.3-0.3-0.6-0.6-1-0.8c-0.4-0.2-0.9-0.3-1.3-0.3c-0.5,0-0.9,0.1-1.4,0.3c-0.4,0.2-0.7,0.4-1,0.7c-0.3,0.3-0.5,0.7-0.7,1.1
		c-0.2,0.4-0.3,0.9-0.3,1.3L-117,190.7L-117,190.7z"/>
	<path class="st3" d="M-113.2,185.3h3l2.5,9.7l0,0l2.4-9.7h3l2.3,9.7l0,0l2.7-9.7h2.9l-4,12.9h-2.9l-2.4-9.6l0,0l-2.4,9.6h-3
		L-113.2,185.3z"/>
	<rect x="-263" y="157.5" class="st4" width="251" height="111"/>
</g>
</svg>
